ply
format ascii 1.0
comment Created by Blender 2.79 (sub 0) - www.blender.org, source file: 'Rock3.blend'
element vertex 108
property float x
property float y
property float z
property float nx
property float ny
property float nz
property uchar red
property uchar green
property uchar blue
element face 36
property list uchar uint vertex_indices
end_header
0.788473 0.215557 0.481103 0.910554 -0.144517 0.387307 110 110 110
0.922937 -0.187455 0.014602 0.910554 -0.144517 0.387307 110 110 110
1.000546 0.441500 0.066830 0.910554 -0.144517 0.387307 110 110 110
-0.420217 0.708400 0.111410 -0.299910 0.948962 -0.097596 110 110 110
0.067369 0.805153 -0.446166 -0.299910 0.948962 -0.097596 110 110 110
-0.363817 0.672130 -0.414569 -0.299910 0.948962 -0.097596 110 110 110
-0.004035 0.198202 -0.732461 -0.418357 0.265114 -0.868730 110 110 110
-0.419970 -0.145758 -0.637126 -0.418357 0.265114 -0.868730 110 110 110
-0.363817 0.672130 -0.414569 -0.418357 0.265114 -0.868730 110 110 110
0.922937 -0.187455 0.014602 0.940729 -0.088901 -0.327302 110 110 110
0.771723 -0.037547 -0.460736 0.940729 -0.088901 -0.327302 110 110 110
1.000546 0.441500 0.066830 0.940729 -0.088901 -0.327302 110 110 110
-0.119985 -0.674133 0.334416 0.080282 -0.617121 0.782762 110 110 110
0.303858 -0.208360 0.658157 0.080282 -0.617121 0.782762 110 110 110
-0.428172 -0.142912 0.784834 0.080282 -0.617121 0.782762 110 110 110
-0.428172 -0.142912 0.784834 0.167041 -0.038547 0.985196 110 110 110
0.303858 -0.208360 0.658157 0.167041 -0.038547 0.985196 110 110 110
0.085781 0.466800 0.721548 0.167041 -0.038547 0.985196 110 110 110
0.788473 0.215557 0.481103 0.417312 0.374921 0.827820 110 110 110
0.499367 0.777699 0.372249 0.417312 0.374921 0.827820 110 110 110
0.085781 0.466800 0.721548 0.417312 0.374921 0.827820 110 110 110
0.309893 -0.504035 -0.575401 -0.031415 -0.231511 -0.972325 110 110 110
-0.419970 -0.145758 -0.637126 -0.031415 -0.231511 -0.972325 110 110 110
-0.004035 0.198202 -0.732461 -0.031415 -0.231511 -0.972325 110 110 110
-0.004035 0.198202 -0.732461 -0.199129 0.437137 -0.877074 110 110 110
-0.363817 0.672130 -0.414569 -0.199129 0.437137 -0.877074 110 110 110
0.067369 0.805153 -0.446166 -0.199129 0.437137 -0.877074 110 110 110
-0.419970 -0.145758 -0.637126 -0.888138 0.176448 -0.424355 110 110 110
-0.857605 -0.016037 0.332744 -0.888138 0.176448 -0.424355 110 110 110
-0.363817 0.672130 -0.414569 -0.888138 0.176448 -0.424355 110 110 110
0.085781 0.466800 0.721548 -0.205967 0.839295 0.503152 110 110 110
0.499367 0.777699 0.372249 -0.205967 0.839295 0.503152 110 110 110
-0.420217 0.708400 0.111410 -0.205967 0.839295 0.503152 110 110 110
-0.428172 -0.142912 0.784834 -0.537989 0.526055 0.658661 110 110 110
-0.420217 0.708400 0.111410 -0.537989 0.526055 0.658661 110 110 110
-0.857605 -0.016037 0.332744 -0.537989 0.526055 0.658661 110 110 110
0.085781 0.466800 0.721548 -0.541537 0.524664 0.656860 110 110 110
-0.420217 0.708400 0.111410 -0.541537 0.524664 0.656860 110 110 110
-0.428172 -0.142912 0.784834 -0.541537 0.524664 0.656860 110 110 110
-0.119985 -0.674133 0.334416 0.477909 -0.823832 0.304803 110 110 110
0.620835 -0.471276 -0.278846 0.477909 -0.823832 0.304803 110 110 110
0.922937 -0.187455 0.014602 0.477909 -0.823832 0.304803 110 110 110
0.303858 -0.208360 0.658157 0.487106 -0.751968 0.444153 110 110 110
-0.119985 -0.674133 0.334416 0.487106 -0.751968 0.444153 110 110 110
0.922937 -0.187455 0.014602 0.487106 -0.751968 0.444153 110 110 110
0.499367 0.777699 0.372249 -0.098962 0.991412 0.085495 110 110 110
0.067369 0.805153 -0.446166 -0.098962 0.991412 0.085495 110 110 110
-0.420217 0.708400 0.111410 -0.098962 0.991412 0.085495 110 110 110
0.606698 0.510646 -0.437937 0.366833 0.148622 -0.918338 110 110 110
0.771723 -0.037547 -0.460736 0.366833 0.148622 -0.918338 110 110 110
-0.004035 0.198202 -0.732461 0.366833 0.148622 -0.918338 110 110 110
-0.774101 -0.514271 0.119652 -0.369426 -0.716278 0.592006 110 110 110
-0.119985 -0.674133 0.334416 -0.369426 -0.716278 0.592006 110 110 110
-0.428172 -0.142912 0.784834 -0.369426 -0.716278 0.592006 110 110 110
-0.420217 0.708400 0.111410 -0.865815 0.484181 -0.126228 110 110 110
-0.363817 0.672130 -0.414569 -0.865815 0.484181 -0.126228 110 110 110
-0.857605 -0.016037 0.332744 -0.865815 0.484181 -0.126228 110 110 110
0.606698 0.510646 -0.437937 0.228326 0.393245 -0.890632 110 110 110
-0.004035 0.198202 -0.732461 0.228326 0.393245 -0.890632 110 110 110
0.067369 0.805153 -0.446166 0.228326 0.393245 -0.890632 110 110 110
-0.278909 -0.667217 -0.183734 0.204523 -0.975926 -0.075757 110 110 110
0.620835 -0.471276 -0.278846 0.204523 -0.975926 -0.075757 110 110 110
-0.119985 -0.674133 0.334416 0.204523 -0.975926 -0.075757 110 110 110
0.788473 0.215557 0.481103 0.665874 0.456694 0.589951 110 110 110
1.000546 0.441500 0.066830 0.665874 0.456694 0.589951 110 110 110
0.499367 0.777699 0.372249 0.665874 0.456694 0.589951 110 110 110
0.303858 -0.208360 0.658157 0.329373 0.017752 0.944033 110 110 110
0.788473 0.215557 0.481103 0.329373 0.017752 0.944033 110 110 110
0.085781 0.466800 0.721548 0.329373 0.017752 0.944033 110 110 110
-0.278909 -0.667217 -0.183734 -0.257300 -0.964072 0.066049 110 110 110
-0.119985 -0.674133 0.334416 -0.257300 -0.964072 0.066049 110 110 110
-0.774101 -0.514271 0.119652 -0.257300 -0.964072 0.066049 110 110 110
-0.857605 -0.016037 0.332744 -0.723139 -0.370508 0.582918 110 110 110
-0.774101 -0.514271 0.119652 -0.723139 -0.370508 0.582918 110 110 110
-0.428172 -0.142912 0.784834 -0.723139 -0.370508 0.582918 110 110 110
0.606698 0.510646 -0.437937 0.443291 0.867133 -0.227098 110 110 110
0.499367 0.777699 0.372249 0.443291 0.867133 -0.227098 110 110 110
1.000546 0.441500 0.066830 0.443291 0.867133 -0.227098 110 110 110
1.000546 0.441500 0.066830 0.778514 0.258152 -0.572078 110 110 110
0.771723 -0.037547 -0.460736 0.778514 0.258152 -0.572078 110 110 110
0.606698 0.510646 -0.437937 0.778514 0.258152 -0.572078 110 110 110
-0.004035 0.198202 -0.732461 0.309692 -0.073579 -0.947986 110 110 110
0.771723 -0.037547 -0.460736 0.309692 -0.073579 -0.947986 110 110 110
0.309893 -0.504035 -0.575401 0.309692 -0.073579 -0.947986 110 110 110
-0.419970 -0.145758 -0.637126 -0.909994 0.024506 -0.413895 110 110 110
-0.774101 -0.514271 0.119652 -0.909994 0.024506 -0.413895 110 110 110
-0.857605 -0.016037 0.332744 -0.909994 0.024506 -0.413895 110 110 110
0.922937 -0.187455 0.014602 0.803033 -0.445399 -0.395927 110 110 110
0.620835 -0.471276 -0.278846 0.803033 -0.445399 -0.395927 110 110 110
0.771723 -0.037547 -0.460736 0.803033 -0.445399 -0.395927 110 110 110
0.620835 -0.471276 -0.278846 0.632643 -0.476204 -0.610731 110 110 110
0.309893 -0.504035 -0.575401 0.632643 -0.476204 -0.610731 110 110 110
0.771723 -0.037547 -0.460736 0.632643 -0.476204 -0.610731 110 110 110
-0.278909 -0.667217 -0.183734 -0.271762 -0.672258 -0.688632 110 110 110
-0.419970 -0.145758 -0.637126 -0.271762 -0.672258 -0.688632 110 110 110
0.309893 -0.504035 -0.575401 -0.271762 -0.672258 -0.688632 110 110 110
0.303858 -0.208360 0.658157 0.639671 -0.480780 0.599726 110 110 110
0.922937 -0.187455 0.014602 0.639671 -0.480780 0.599726 110 110 110
0.788473 0.215557 0.481103 0.639671 -0.480780 0.599726 110 110 110
-0.278909 -0.667217 -0.183734 0.201204 -0.974081 -0.103363 110 110 110
0.309893 -0.504035 -0.575401 0.201204 -0.974081 -0.103363 110 110 110
0.620835 -0.471276 -0.278846 0.201204 -0.974081 -0.103363 110 110 110
0.606698 0.510646 -0.437937 0.470154 0.854856 -0.219492 110 110 110
0.067369 0.805153 -0.446166 0.470154 0.854856 -0.219492 110 110 110
0.499367 0.777699 0.372249 0.470154 0.854856 -0.219492 110 110 110
-0.278909 -0.667217 -0.183734 -0.537477 -0.631402 -0.558972 110 110 110
-0.774101 -0.514271 0.119652 -0.537477 -0.631402 -0.558972 110 110 110
-0.419970 -0.145758 -0.637126 -0.537477 -0.631402 -0.558972 110 110 110
3 0 1 2
3 3 4 5
3 6 7 8
3 9 10 11
3 12 13 14
3 15 16 17
3 18 19 20
3 21 22 23
3 24 25 26
3 27 28 29
3 30 31 32
3 33 34 35
3 36 37 38
3 39 40 41
3 42 43 44
3 45 46 47
3 48 49 50
3 51 52 53
3 54 55 56
3 57 58 59
3 60 61 62
3 63 64 65
3 66 67 68
3 69 70 71
3 72 73 74
3 75 76 77
3 78 79 80
3 81 82 83
3 84 85 86
3 87 88 89
3 90 91 92
3 93 94 95
3 96 97 98
3 99 100 101
3 102 103 104
3 105 106 107
