ply
format ascii 1.0
comment Created by Blender 2.79 (sub 0) - www.blender.org, source file: 'Grass.blend'
element vertex 327
property float x
property float y
property float z
property float nx
property float ny
property float nz
property uchar red
property uchar green
property uchar blue
element face 109
property list uchar uint vertex_indices
end_header
-0.086213 0.839519 -0.736856 0.966099 0.225070 -0.126473 66 102 34
0.035983 0.471577 -0.458213 0.966099 0.225070 -0.126473 66 102 34
0.002798 0.509294 -0.644589 0.966099 0.225070 -0.126473 66 102 34
-0.188333 -0.030349 -0.389693 -0.259558 -0.452664 -0.853068 66 102 34
-0.087137 0.365098 -0.630319 -0.259558 -0.452664 -0.853068 66 102 34
-0.021825 -0.030349 -0.440355 -0.259558 -0.452664 -0.853068 66 102 34
0.089260 1.107736 -0.016047 0.318013 0.068045 -0.945641 66 102 34
0.158429 0.837688 -0.012218 0.318013 0.068045 -0.945641 66 102 34
-0.088947 0.837306 -0.095436 0.318013 0.068045 -0.945641 66 102 34
-0.049240 -0.030349 0.144382 -0.834809 0.007144 0.550493 66 102 34
-0.122741 0.625141 0.024412 -0.834809 0.007144 0.550493 66 102 34
-0.165323 -0.030349 -0.031655 -0.834809 0.007144 0.550493 66 102 34
-0.202466 0.359579 -0.491668 -0.918192 0.332451 0.215404 66 102 34
-0.086213 0.839519 -0.736856 -0.918192 0.332451 0.215404 66 102 34
-0.113140 0.998412 -1.096866 -0.918192 0.332451 0.215404 66 102 34
0.387468 -0.030349 -0.336403 0.826410 -0.249299 -0.504872 66 102 34
0.572359 0.370440 -0.231665 0.826410 -0.249299 -0.504872 66 102 34
0.469164 -0.030349 -0.202678 0.826410 -0.249299 -0.504872 66 102 34
0.060623 -0.030349 -0.311122 0.529591 -0.404114 -0.745805 66 102 34
-0.087137 0.365098 -0.630319 0.529591 -0.404114 -0.745805 66 102 34
0.002798 0.509294 -0.644589 0.529591 -0.404114 -0.745805 66 102 34
-0.617804 0.748751 -0.010670 -0.282932 0.080671 0.955741 66 102 34
-0.658497 0.529559 -0.004215 -0.282932 0.080671 0.955741 66 102 34
-0.379712 -0.030349 0.125574 -0.282932 0.080671 0.955741 66 102 34
0.002798 0.509294 -0.644589 0.618398 -0.449490 -0.644626 66 102 34
-0.087137 0.365098 -0.630319 0.618398 -0.449490 -0.644626 66 102 34
-0.113140 0.998412 -1.096866 0.618398 -0.449490 -0.644626 66 102 34
-0.203076 -0.030349 -0.174301 0.941411 0.246370 0.230321 66 102 34
-0.388932 0.574896 -0.062057 0.941411 0.246370 0.230321 66 102 34
-0.251014 -0.030349 0.021639 0.941411 0.246370 0.230321 66 102 34
-0.547893 -0.030349 -0.109877 -0.534016 -0.118826 -0.837082 66 102 34
-0.490230 0.406495 -0.208674 -0.534016 -0.118826 -0.837082 66 102 34
-0.348394 -0.030349 -0.237148 -0.534016 -0.118826 -0.837082 66 102 34
0.042416 -0.030349 0.330328 -0.780735 0.339442 -0.524626 66 102 34
0.194148 0.456594 0.419586 -0.780735 0.339442 -0.524626 66 102 34
0.164576 -0.030349 0.148533 -0.780735 0.339442 -0.524626 66 102 34
-0.421596 0.605101 -0.206002 -0.021206 -0.526430 -0.849954 66 102 34
-0.767201 0.628805 -0.212061 -0.021206 -0.526430 -0.849954 66 102 34
-1.261923 1.297333 -0.613779 -0.021206 -0.526430 -0.849954 66 102 34
-0.562722 0.554394 0.542532 -0.451218 -0.530213 0.717828 66 102 34
-0.394289 0.344134 0.493101 -0.451218 -0.530213 0.717828 66 102 34
-0.588328 1.297346 1.075207 -0.451218 -0.530213 0.717828 66 102 34
0.279089 0.234875 0.546622 0.620598 -0.618583 0.481886 66 102 34
0.369140 0.241734 0.439454 0.620598 -0.618583 0.481886 66 102 34
0.612989 0.952268 1.037505 0.620598 -0.618583 0.481886 66 102 34
0.309500 0.260861 0.276425 0.252831 0.663815 -0.703865 66 102 34
0.194148 0.456594 0.419586 0.252831 0.663815 -0.703865 66 102 34
0.612989 0.952268 1.037505 0.252831 0.663815 -0.703865 66 102 34
-0.188333 -0.030349 -0.389693 -0.750646 -0.192500 -0.632040 66 102 34
-0.202466 0.359579 -0.491668 -0.750646 -0.192500 -0.632040 66 102 34
-0.087137 0.365098 -0.630319 -0.750646 -0.192500 -0.632040 66 102 34
-0.049240 -0.030349 0.144382 -0.890686 -0.016725 0.454311 66 102 34
-0.041463 0.795408 0.190029 -0.890686 -0.016725 0.454311 66 102 34
-0.122741 0.625141 0.024412 -0.890686 -0.016725 0.454311 66 102 34
-0.203076 -0.030349 -0.174301 0.937651 0.315126 -0.146650 66 102 34
-0.421596 0.605101 -0.206002 0.937651 0.315126 -0.146650 66 102 34
-0.388932 0.574896 -0.062057 0.937651 0.315126 -0.146650 66 102 34
-0.133485 -0.030349 0.133268 0.523264 0.517076 -0.677368 66 102 34
-0.394329 0.854521 0.607241 0.523264 0.517076 -0.677368 66 102 34
-0.030749 -0.030349 0.212631 0.523264 0.517076 -0.677368 66 102 34
-0.547893 -0.030349 -0.109877 -0.148277 -0.199490 -0.968616 66 102 34
-0.767201 0.628805 -0.212061 -0.148277 -0.199490 -0.968616 66 102 34
-0.490230 0.406495 -0.208674 -0.148277 -0.199490 -0.968616 66 102 34
-0.388547 -0.030349 0.355063 -0.856413 -0.092237 -0.507985 66 102 34
-0.562722 0.554394 0.542532 -0.856413 -0.092237 -0.507985 66 102 34
-0.260814 -0.030349 0.139718 -0.856413 -0.092237 -0.507985 66 102 34
0.271357 0.642615 0.695213 -0.950060 0.306368 0.059363 66 102 34
0.194148 0.456594 0.419586 -0.950060 0.306368 0.059363 66 102 34
0.159466 0.325397 0.541618 -0.950060 0.306368 0.059363 66 102 34
0.169927 -0.030349 -0.279417 -0.534758 0.414349 -0.736443 66 102 34
0.356925 0.459273 -0.139724 -0.534758 0.414349 -0.736443 66 102 34
0.617218 0.568464 -0.267297 -0.534758 0.414349 -0.736443 66 102 34
-0.041463 0.795408 0.190029 0.262180 -0.296134 0.918459 66 102 34
0.098336 0.735527 0.130815 0.262180 -0.296134 0.918459 66 102 34
0.289618 1.808202 0.422070 0.262180 -0.296134 0.918459 66 102 34
0.947849 0.921384 -0.143942 -0.481737 0.621658 0.617634 66 102 34
0.356925 0.459273 -0.139724 -0.481737 0.621658 0.617634 66 102 34
0.426931 0.442679 -0.068420 -0.481737 0.621658 0.617634 66 102 34
0.098336 0.735527 0.130815 0.944868 -0.231399 0.231689 66 102 34
0.158429 0.837688 -0.012218 0.944868 -0.231399 0.231689 66 102 34
0.289618 1.808202 0.422070 0.944868 -0.231399 0.231689 66 102 34
0.089260 1.107736 -0.016047 0.749944 0.183074 -0.635663 66 102 34
0.289618 1.808202 0.422070 0.749944 0.183074 -0.635663 66 102 34
0.158429 0.837688 -0.012218 0.749944 0.183074 -0.635663 66 102 34
0.089260 1.107736 -0.016047 0.369327 0.414562 -0.831707 66 102 34
0.005540 1.467661 0.126181 0.369327 0.414562 -0.831707 66 102 34
0.289618 1.808202 0.422070 0.369327 0.414562 -0.831707 66 102 34
0.289618 1.808202 0.422070 -0.778536 0.113066 0.617331 66 102 34
0.005540 1.467661 0.126181 -0.778536 0.113066 0.617331 66 102 34
-0.041463 0.795408 0.190029 -0.778536 0.113066 0.617331 66 102 34
-0.122741 0.625141 0.024412 -0.929718 0.098702 0.354798 66 102 34
-0.041463 0.795408 0.190029 -0.929718 0.098702 0.354798 66 102 34
0.005540 1.467661 0.126181 -0.929718 0.098702 0.354798 66 102 34
0.089260 1.107736 -0.016047 -0.106309 0.343938 -0.932955 66 102 34
-0.088947 0.837306 -0.095436 -0.106309 0.343938 -0.932955 66 102 34
0.005540 1.467661 0.126181 -0.106309 0.343938 -0.932955 66 102 34
-0.088947 0.837306 -0.095436 -0.988373 0.151712 -0.010126 66 102 34
-0.122741 0.625141 0.024412 -0.988373 0.151712 -0.010126 66 102 34
0.005540 1.467661 0.126181 -0.988373 0.151712 -0.010126 66 102 34
1.021810 1.045296 -0.270232 -0.284045 0.235291 -0.929492 66 102 34
1.291272 1.108119 -0.336675 -0.284045 0.235291 -0.929492 66 102 34
0.617218 0.568464 -0.267297 -0.284045 0.235291 -0.929492 66 102 34
0.572359 0.370440 -0.231665 0.721363 -0.686607 0.090584 66 102 34
1.044584 0.872094 -0.189786 0.721363 -0.686607 0.090584 66 102 34
0.489685 0.301556 -0.095410 0.721363 -0.686607 0.090584 66 102 34
0.617218 0.568464 -0.267297 0.335690 -0.239954 -0.910897 66 102 34
1.044584 0.872094 -0.189786 0.335690 -0.239954 -0.910897 66 102 34
0.572359 0.370440 -0.231665 0.335690 -0.239954 -0.910897 66 102 34
1.021810 1.045296 -0.270232 0.007309 0.711634 0.702512 66 102 34
0.947849 0.921384 -0.143942 0.007309 0.711634 0.702512 66 102 34
1.291272 1.108119 -0.336675 0.007309 0.711634 0.702512 66 102 34
0.947849 0.921384 -0.143942 0.457412 0.073455 0.886216 66 102 34
1.044584 0.872094 -0.189786 0.457412 0.073455 0.886216 66 102 34
1.291272 1.108119 -0.336675 0.457412 0.073455 0.886216 66 102 34
0.169927 -0.030349 -0.279417 -0.248053 0.204452 -0.946926 66 102 34
0.617218 0.568464 -0.267297 -0.248053 0.204452 -0.946926 66 102 34
0.387468 -0.030349 -0.336403 -0.248053 0.204452 -0.946926 66 102 34
1.021810 1.045296 -0.270232 -0.538271 0.452346 -0.711089 66 102 34
0.617218 0.568464 -0.267297 -0.538271 0.452346 -0.711089 66 102 34
0.356925 0.459273 -0.139724 -0.538271 0.452346 -0.711089 66 102 34
-0.394289 0.344134 0.493101 -0.157322 -0.343678 0.925816 66 102 34
-0.562722 0.554394 0.542532 -0.157322 -0.343678 0.925816 66 102 34
-0.388547 -0.030349 0.355063 -0.157322 -0.343678 0.925816 66 102 34
-0.131624 0.453804 -0.417894 -0.860096 0.381404 0.338772 66 102 34
-0.086213 0.839519 -0.736856 -0.860096 0.381404 0.338772 66 102 34
-0.202466 0.359579 -0.491668 -0.860096 0.381404 0.338772 66 102 34
0.369140 0.241734 0.439454 0.756271 -0.201003 0.622617 66 102 34
0.279089 0.234875 0.546622 0.756271 -0.201003 0.622617 66 102 34
0.265233 -0.030349 0.477828 0.756271 -0.201003 0.622617 66 102 34
-0.260814 -0.030349 0.139718 -0.046557 0.391345 -0.919066 66 102 34
-0.504819 0.792200 0.502326 -0.046557 0.391345 -0.919066 66 102 34
-0.133485 -0.030349 0.133268 -0.046557 0.391345 -0.919066 66 102 34
-0.260814 -0.030349 0.139718 -0.746791 0.070019 -0.661362 66 102 34
-0.562722 0.554394 0.542532 -0.746791 0.070019 -0.661362 66 102 34
-0.504819 0.792200 0.502326 -0.746791 0.070019 -0.661362 66 102 34
-0.490230 0.406495 -0.208674 0.018023 0.007224 -0.999812 66 102 34
-0.767201 0.628805 -0.212061 0.018023 0.007224 -0.999812 66 102 34
-0.421596 0.605101 -0.206002 0.018023 0.007224 -0.999812 66 102 34
-0.030749 -0.030349 0.212631 0.906015 0.239364 0.349057 66 102 34
-0.246701 0.414398 0.468174 0.906015 0.239364 0.349057 66 102 34
-0.094192 -0.030349 0.377307 0.906015 0.239364 0.349057 66 102 34
-0.030749 -0.030349 0.212631 0.857449 0.130321 0.497794 66 102 34
-0.394329 0.854521 0.607241 0.857449 0.130321 0.497794 66 102 34
-0.246701 0.414398 0.468174 0.857449 0.130321 0.497794 66 102 34
-0.658497 0.529559 -0.004215 -0.902224 -0.245180 0.354793 66 102 34
-0.767201 0.628805 -0.212061 -0.902224 -0.245180 0.354793 66 102 34
-0.547893 -0.030349 -0.109877 -0.902224 -0.245180 0.354793 66 102 34
-0.658497 0.529559 -0.004215 -0.710598 -0.702670 0.036122 66 102 34
-1.044037 0.905278 -0.279883 -0.710598 -0.702670 0.036122 66 102 34
-0.767201 0.628805 -0.212061 -0.710598 -0.702670 0.036122 66 102 34
0.617218 0.568464 -0.267297 0.849121 -0.273649 -0.451786 66 102 34
0.572359 0.370440 -0.231665 0.849121 -0.273649 -0.451786 66 102 34
0.387468 -0.030349 -0.336403 0.849121 -0.273649 -0.451786 66 102 34
0.426931 0.442679 -0.068420 -0.624773 0.354228 0.695831 66 102 34
0.356925 0.459273 -0.139724 -0.624773 0.354228 0.695831 66 102 34
0.118111 -0.030349 -0.104899 -0.624773 0.354228 0.695831 66 102 34
-0.088947 0.837306 -0.095436 0.317003 0.103130 -0.942801 66 102 34
0.158429 0.837688 -0.012218 0.317003 0.103130 -0.942801 66 102 34
-0.086918 -0.030349 -0.189663 0.317003 0.103130 -0.942801 66 102 34
0.098336 0.735527 0.130815 0.369456 -0.054759 0.927633 66 102 34
-0.041463 0.795408 0.190029 0.369456 -0.054759 0.927633 66 102 34
-0.049240 -0.030349 0.144382 0.369456 -0.054759 0.927633 66 102 34
0.035983 0.471577 -0.458213 0.185441 0.341481 0.921413 66 102 34
-0.131624 0.453804 -0.417894 0.185441 0.341481 0.921413 66 102 34
-0.132540 -0.030349 -0.238279 0.185441 0.341481 0.921413 66 102 34
0.035983 0.471577 -0.458213 0.119503 0.624311 0.771981 66 102 34
-0.086213 0.839519 -0.736856 0.119503 0.624311 0.771981 66 102 34
-0.131624 0.453804 -0.417894 0.119503 0.624311 0.771981 66 102 34
0.612989 0.952268 1.037505 -0.266212 0.831910 -0.486885 66 102 34
0.194148 0.456594 0.419586 -0.266212 0.831910 -0.486885 66 102 34
0.271357 0.642615 0.695213 -0.266212 0.831910 -0.486885 66 102 34
0.369140 0.241734 0.439454 0.937560 -0.030099 -0.346518 66 102 34
0.309500 0.260861 0.276425 0.937560 -0.030099 -0.346518 66 102 34
0.612989 0.952268 1.037505 0.937560 -0.030099 -0.346518 66 102 34
0.271357 0.642615 0.695213 -0.630731 -0.146502 0.762047 66 102 34
0.159466 0.325397 0.541618 -0.630731 -0.146502 0.762047 66 102 34
0.612989 0.952268 1.037505 -0.630731 -0.146502 0.762047 66 102 34
0.159466 0.325397 0.541618 -0.348168 -0.413592 0.841262 66 102 34
0.279089 0.234875 0.546622 -0.348168 -0.413592 0.841262 66 102 34
0.612989 0.952268 1.037505 -0.348168 -0.413592 0.841262 66 102 34
-0.394289 0.344134 0.493101 0.347783 -0.436065 0.829997 66 102 34
-0.246701 0.414398 0.468174 0.347783 -0.436065 0.829997 66 102 34
-0.588328 1.297346 1.075207 0.347783 -0.436065 0.829997 66 102 34
-0.394329 0.854521 0.607241 0.951622 0.277526 0.131887 66 102 34
-0.588328 1.297346 1.075207 0.951622 0.277526 0.131887 66 102 34
-0.246701 0.414398 0.468174 0.951622 0.277526 0.131887 66 102 34
-0.394329 0.854521 0.607241 0.180167 0.750663 -0.635645 66 102 34
-0.504819 0.792200 0.502326 0.180167 0.750663 -0.635645 66 102 34
-0.588328 1.297346 1.075207 0.180167 0.750663 -0.635645 66 102 34
-0.504819 0.792200 0.502326 -0.938778 0.178792 -0.294498 66 102 34
-0.562722 0.554394 0.542532 -0.938778 0.178792 -0.294498 66 102 34
-0.588328 1.297346 1.075207 -0.938778 0.178792 -0.294498 66 102 34
-0.394329 0.854521 0.607241 0.414089 0.521626 -0.745947 66 102 34
-0.133485 -0.030349 0.133268 0.414089 0.521626 -0.745947 66 102 34
-0.504819 0.792200 0.502326 0.414089 0.521626 -0.745947 66 102 34
-0.767201 0.628805 -0.212061 -0.583599 -0.689567 -0.428847 66 102 34
-1.044037 0.905278 -0.279883 -0.583599 -0.689567 -0.428847 66 102 34
-1.261923 1.297333 -0.613779 -0.583599 -0.689567 -0.428847 66 102 34
-1.261923 1.297333 -0.613779 -0.526182 0.362642 0.769170 66 102 34
-1.044037 0.905278 -0.279883 -0.526182 0.362642 0.769170 66 102 34
-0.934669 1.100395 -0.297057 -0.526182 0.362642 0.769170 66 102 34
-0.934669 1.100395 -0.297057 0.689198 0.658267 -0.302805 66 102 34
-0.421596 0.605101 -0.206002 0.689198 0.658267 -0.302805 66 102 34
-1.261923 1.297333 -0.613779 0.689198 0.658267 -0.302805 66 102 34
-0.617804 0.748751 -0.010670 0.620878 0.748687 0.232332 66 102 34
-0.388932 0.574896 -0.062057 0.620878 0.748687 0.232332 66 102 34
-0.934669 1.100395 -0.297057 0.620878 0.748687 0.232332 66 102 34
-0.388932 0.574896 -0.062057 0.695150 0.718831 -0.006910 66 102 34
-0.421596 0.605101 -0.206002 0.695150 0.718831 -0.006910 66 102 34
-0.934669 1.100395 -0.297057 0.695150 0.718831 -0.006910 66 102 34
-1.044037 0.905278 -0.279883 -0.422848 0.311909 0.850830 66 102 34
-0.617804 0.748751 -0.010670 -0.422848 0.311909 0.850830 66 102 34
-0.934669 1.100395 -0.297057 -0.422848 0.311909 0.850830 66 102 34
-1.044037 0.905278 -0.279883 -0.498970 0.117917 0.858559 66 102 34
-0.658497 0.529559 -0.004215 -0.498970 0.117917 0.858559 66 102 34
-0.617804 0.748751 -0.010670 -0.498970 0.117917 0.858559 66 102 34
0.164576 -0.030349 0.148533 -0.177494 0.468431 -0.865487 66 102 34
0.309500 0.260861 0.276425 -0.177494 0.468431 -0.865487 66 102 34
0.349540 -0.030349 0.110601 -0.177494 0.468431 -0.865487 66 102 34
0.164576 -0.030349 0.148533 -0.227170 0.484148 -0.844982 66 102 34
0.194148 0.456594 0.419586 -0.227170 0.484148 -0.844982 66 102 34
0.309500 0.260861 0.276425 -0.227170 0.484148 -0.844982 66 102 34
-0.246701 0.414398 0.468174 0.408183 -0.046308 0.911725 66 102 34
-0.261218 -0.030349 0.452085 0.408183 -0.046308 0.911725 66 102 34
-0.094192 -0.030349 0.377307 0.408183 -0.046308 0.911725 66 102 34
-0.246701 0.414398 0.468174 0.185603 -0.041575 0.981745 66 102 34
-0.394289 0.344134 0.493101 0.185603 -0.041575 0.981745 66 102 34
-0.261218 -0.030349 0.452085 0.185603 -0.041575 0.981745 66 102 34
-0.394289 0.344134 0.493101 -0.580121 -0.289532 0.761335 66 102 34
-0.388547 -0.030349 0.355063 -0.580121 -0.289532 0.761335 66 102 34
-0.261218 -0.030349 0.452085 -0.580121 -0.289532 0.761335 66 102 34
-0.132540 -0.030349 -0.238279 -0.936836 0.056324 0.345205 66 102 34
-0.202466 0.359579 -0.491668 -0.936836 0.056324 0.345205 66 102 34
-0.188333 -0.030349 -0.389693 -0.936836 0.056324 0.345205 66 102 34
-0.132540 -0.030349 -0.238279 -0.821604 0.199645 0.533956 66 102 34
-0.131624 0.453804 -0.417894 -0.821604 0.199645 0.533956 66 102 34
-0.202466 0.359579 -0.491668 -0.821604 0.199645 0.533956 66 102 34
0.309500 0.260861 0.276425 0.908143 0.294377 -0.297688 66 102 34
0.369140 0.241734 0.439454 0.908143 0.294377 -0.297688 66 102 34
0.349540 -0.030349 0.110601 0.908143 0.294377 -0.297688 66 102 34
0.369140 0.241734 0.439454 0.922584 -0.322458 0.211803 66 102 34
0.265233 -0.030349 0.477828 0.922584 -0.322458 0.211803 66 102 34
0.349540 -0.030349 0.110601 0.922584 -0.322458 0.211803 66 102 34
-0.348394 -0.030349 -0.237148 0.395322 0.090343 -0.914089 66 102 34
-0.421596 0.605101 -0.206002 0.395322 0.090343 -0.914089 66 102 34
-0.203076 -0.030349 -0.174301 0.395322 0.090343 -0.914089 66 102 34
-0.348394 -0.030349 -0.237148 -0.076881 0.039973 -0.996239 66 102 34
-0.490230 0.406495 -0.208674 -0.076881 0.039973 -0.996239 66 102 34
-0.421596 0.605101 -0.206002 -0.076881 0.039973 -0.996239 66 102 34
-0.251014 -0.030349 0.021639 0.609421 0.243221 0.754619 66 102 34
-0.388932 0.574896 -0.062057 0.609421 0.243221 0.754619 66 102 34
-0.379712 -0.030349 0.125574 0.609421 0.243221 0.754619 66 102 34
-0.388932 0.574896 -0.062057 0.405513 0.276297 0.871332 66 102 34
-0.617804 0.748751 -0.010670 0.405513 0.276297 0.871332 66 102 34
-0.379712 -0.030349 0.125574 0.405513 0.276297 0.871332 66 102 34
-0.087137 0.365098 -0.630319 -0.675601 -0.455062 -0.580071 66 102 34
-0.202466 0.359579 -0.491668 -0.675601 -0.455062 -0.580071 66 102 34
-0.113140 0.998412 -1.096866 -0.675601 -0.455062 -0.580071 66 102 34
0.356925 0.459273 -0.139724 -0.875073 0.408340 -0.259820 66 102 34
0.169927 -0.030349 -0.279417 -0.875073 0.408340 -0.259820 66 102 34
0.118111 -0.030349 -0.104899 -0.875073 0.408340 -0.259820 66 102 34
-0.379712 -0.030349 0.125574 -0.345809 0.045071 0.937222 66 102 34
-0.658497 0.529559 -0.004215 -0.345809 0.045071 0.937222 66 102 34
-0.517642 -0.030349 0.074682 -0.345809 0.045071 0.937222 66 102 34
-0.658497 0.529559 -0.004215 -0.962667 -0.219943 0.157788 66 102 34
-0.547893 -0.030349 -0.109877 -0.962667 -0.219943 0.157788 66 102 34
-0.517642 -0.030349 0.074682 -0.962667 -0.219943 0.157788 66 102 34
0.469164 -0.030349 -0.202678 0.801427 -0.228220 0.552838 66 102 34
0.489685 0.301556 -0.095410 0.801427 -0.228220 0.552838 66 102 34
0.329094 -0.030349 0.000376 0.801427 -0.228220 0.552838 66 102 34
0.469164 -0.030349 -0.202678 0.879135 -0.194907 0.434895 66 102 34
0.572359 0.370440 -0.231665 0.879135 -0.194907 0.434895 66 102 34
0.489685 0.301556 -0.095410 0.879135 -0.194907 0.434895 66 102 34
-0.165323 -0.030349 -0.031655 -0.891664 0.095769 -0.442451 66 102 34
-0.122741 0.625141 0.024412 -0.891664 0.095769 -0.442451 66 102 34
-0.086918 -0.030349 -0.189663 -0.891664 0.095769 -0.442451 66 102 34
-0.122741 0.625141 0.024412 -0.972133 0.023063 -0.233293 66 102 34
-0.088947 0.837306 -0.095436 -0.972133 0.023063 -0.233293 66 102 34
-0.086918 -0.030349 -0.189663 -0.972133 0.023063 -0.233293 66 102 34
0.489685 0.301556 -0.095410 0.458834 0.034227 0.887862 66 102 34
0.426931 0.442679 -0.068420 0.458834 0.034227 0.887862 66 102 34
0.329094 -0.030349 0.000376 0.458834 0.034227 0.887862 66 102 34
0.426931 0.442679 -0.068420 -0.435821 0.217172 0.873440 66 102 34
0.118111 -0.030349 -0.104899 -0.435821 0.217172 0.873440 66 102 34
0.329094 -0.030349 0.000376 -0.435821 0.217172 0.873440 66 102 34
0.002798 0.509294 -0.644589 0.960925 0.272540 0.048416 66 102 34
-0.113140 0.998412 -1.096866 0.960925 0.272540 0.048416 66 102 34
-0.086213 0.839519 -0.736856 0.960925 0.272540 0.048416 66 102 34
0.180543 -0.030349 0.009073 0.596416 -0.004492 -0.802663 66 102 34
-0.086918 -0.030349 -0.189663 0.596416 -0.004492 -0.802663 66 102 34
0.158429 0.837688 -0.012218 0.596416 -0.004492 -0.802663 66 102 34
-0.021825 -0.030349 -0.440355 0.837122 -0.118297 -0.534071 66 102 34
-0.087137 0.365098 -0.630319 0.837122 -0.118297 -0.534071 66 102 34
0.060623 -0.030349 -0.311122 0.837122 -0.118297 -0.534071 66 102 34
0.279089 0.234875 0.546622 -0.217053 -0.234449 0.947587 66 102 34
0.159466 0.325397 0.541618 -0.217053 -0.234449 0.947587 66 102 34
0.265233 -0.030349 0.477828 -0.217053 -0.234449 0.947587 66 102 34
0.159466 0.325397 0.541618 -0.526692 -0.299262 0.795637 66 102 34
0.042416 -0.030349 0.330328 -0.526692 -0.299262 0.795637 66 102 34
0.265233 -0.030349 0.477828 -0.526692 -0.299262 0.795637 66 102 34
0.035983 0.471577 -0.458213 0.984397 -0.003232 -0.175932 66 102 34
0.060623 -0.030349 -0.311122 0.984397 -0.003232 -0.175932 66 102 34
0.002798 0.509294 -0.644589 0.984397 -0.003232 -0.175932 66 102 34
0.158429 0.837688 -0.012218 0.912731 0.033241 0.407207 66 102 34
0.098336 0.735527 0.130815 0.912731 0.033241 0.407207 66 102 34
0.180543 -0.030349 0.009073 0.912731 0.033241 0.407207 66 102 34
0.098336 0.735527 0.130815 0.505698 -0.082231 0.858783 66 102 34
-0.049240 -0.030349 0.144382 0.505698 -0.082231 0.858783 66 102 34
0.180543 -0.030349 0.009073 0.505698 -0.082231 0.858783 66 102 34
0.035983 0.471577 -0.458213 0.338749 0.279874 0.898287 66 102 34
-0.132540 -0.030349 -0.238279 0.338749 0.279874 0.898287 66 102 34
0.060623 -0.030349 -0.311122 0.338749 0.279874 0.898287 66 102 34
1.044584 0.872094 -0.189786 0.243329 -0.076719 0.966905 66 102 34
0.426931 0.442679 -0.068420 0.243329 -0.076719 0.966905 66 102 34
0.489685 0.301556 -0.095410 0.243329 -0.076719 0.966905 66 102 34
0.617218 0.568464 -0.267297 0.590694 -0.769157 -0.243880 66 102 34
1.291272 1.108119 -0.336675 0.590694 -0.769157 -0.243880 66 102 34
1.044584 0.872094 -0.189786 0.590694 -0.769157 -0.243880 66 102 34
0.042416 -0.030349 0.330328 -0.956026 0.290462 0.040567 66 102 34
0.159466 0.325397 0.541618 -0.956026 0.290462 0.040567 66 102 34
0.194148 0.456594 0.419586 -0.956026 0.290462 0.040567 66 102 34
0.947849 0.921384 -0.143942 -0.567348 0.728991 0.382999 66 102 34
1.021810 1.045296 -0.270232 -0.567348 0.728991 0.382999 66 102 34
0.356925 0.459273 -0.139724 -0.567348 0.728991 0.382999 66 102 34
1.044584 0.872094 -0.189786 0.328234 -0.211957 0.920509 66 102 34
0.947849 0.921384 -0.143942 0.328234 -0.211957 0.920509 66 102 34
0.426931 0.442679 -0.068420 0.328234 -0.211957 0.920509 66 102 34
3 0 1 2
3 3 4 5
3 6 7 8
3 9 10 11
3 12 13 14
3 15 16 17
3 18 19 20
3 21 22 23
3 24 25 26
3 27 28 29
3 30 31 32
3 33 34 35
3 36 37 38
3 39 40 41
3 42 43 44
3 45 46 47
3 48 49 50
3 51 52 53
3 54 55 56
3 57 58 59
3 60 61 62
3 63 64 65
3 66 67 68
3 69 70 71
3 72 73 74
3 75 76 77
3 78 79 80
3 81 82 83
3 84 85 86
3 87 88 89
3 90 91 92
3 93 94 95
3 96 97 98
3 99 100 101
3 102 103 104
3 105 106 107
3 108 109 110
3 111 112 113
3 114 115 116
3 117 118 119
3 120 121 122
3 123 124 125
3 126 127 128
3 129 130 131
3 132 133 134
3 135 136 137
3 138 139 140
3 141 142 143
3 144 145 146
3 147 148 149
3 150 151 152
3 153 154 155
3 156 157 158
3 159 160 161
3 162 163 164
3 165 166 167
3 168 169 170
3 171 172 173
3 174 175 176
3 177 178 179
3 180 181 182
3 183 184 185
3 186 187 188
3 189 190 191
3 192 193 194
3 195 196 197
3 198 199 200
3 201 202 203
3 204 205 206
3 207 208 209
3 210 211 212
3 213 214 215
3 216 217 218
3 219 220 221
3 222 223 224
3 225 226 227
3 228 229 230
3 231 232 233
3 234 235 236
3 237 238 239
3 240 241 242
3 243 244 245
3 246 247 248
3 249 250 251
3 252 253 254
3 255 256 257
3 258 259 260
3 261 262 263
3 264 265 266
3 267 268 269
3 270 271 272
3 273 274 275
3 276 277 278
3 279 280 281
3 282 283 284
3 285 286 287
3 288 289 290
3 291 292 293
3 294 295 296
3 297 298 299
3 300 301 302
3 303 304 305
3 306 307 308
3 309 310 311
3 312 313 314
3 315 316 317
3 318 319 320
3 321 322 323
3 324 325 326
