# Blender v2.79 (sub 0) OBJ File: ''
# www.blender.org
mtllib 0010.mtl
o 0010_0010.002
v -0.000000 -0.000001 -0.999999
v -0.000000 -0.000001 -0.000001
v -0.000000 1.142856 -0.999999
v -0.000000 1.142856 -0.000001
v 0.999998 -0.000001 -0.999999
v 0.999998 -0.000001 -0.000001
v 0.999998 1.142856 -0.999999
v 0.999998 1.142856 -0.000001
vt 0.342342 0.011905
vt 0.657658 0.011905
vt 0.342342 0.488095
vt 0.675676 0.869046
vt 0.990991 0.452380
vt 0.990991 0.869046
vt 0.324324 0.988095
vt 0.009009 0.511905
vt 0.324324 0.511905
vt 0.675676 0.452380
vt 0.342342 0.988095
vt 0.342342 0.511905
vt 0.657658 0.988095
vt 0.657658 0.511905
vt 0.675676 0.428571
vt 0.990991 0.011905
vt 0.990991 0.428571
vt 0.675676 0.011905
vt 0.009009 0.988095
vt 0.657658 0.488095
vt 0.009009 0.488095
vt 0.009009 0.011905
vt 0.324324 0.488095
vt 0.324324 0.011905
vn 0.0000 0.0000 -1.0000
vn 0.0000 1.0000 0.0000
vn 0.0000 -0.0000 1.0000
vn -1.0000 0.0000 0.0000
vn 0.0000 -1.0000 -0.0000
vn 1.0000 0.0000 0.0000
usemtl palette
s off
f 3/1/1 7/2/1 1/3/1
f 8/4/2 3/5/2 4/6/2
f 8/7/3 2/8/3 6/9/3
f 7/10/2 3/5/2 8/4/2
f 2/11/4 4/12/4 1/13/4
f 1/13/4 4/12/4 3/14/4
f 5/15/5 2/16/5 1/17/5
f 5/15/5 6/18/5 2/16/5
f 8/7/3 4/19/3 2/8/3
f 1/3/1 7/2/1 5/20/1
f 8/21/6 6/22/6 7/23/6
f 6/22/6 5/24/6 7/23/6
