ply
format ascii 1.0
comment Created by Blender 2.79 (sub 0) - www.blender.org, source file: 'Rock2.blend'
element vertex 541
property float x
property float y
property float z
property float nx
property float ny
property float nz
property uchar red
property uchar green
property uchar blue
element face 190
property list uchar uint vertex_indices
end_header
0.498537 -0.030590 -0.198729 -0.773885 0.414641 0.478723 143 142 138
0.489065 0.083035 -0.312455 -0.773885 0.414641 0.478723 138 137 133
0.432333 -0.030590 -0.305751 -0.773885 0.414641 0.478723 142 141 137
0.618843 -0.022573 -0.307359 0.667013 0.056678 0.742887 143 142 138
0.572862 0.024419 -0.269659 0.667013 0.056678 0.742887 143 142 138
0.498537 -0.030590 -0.198729 0.667013 0.056678 0.742887 143 142 138
0.580183 0.049452 -0.378434 0.928367 0.174485 -0.328161 143 142 138
0.618843 -0.022573 -0.307359 0.928367 0.174485 -0.328161 143 142 138
0.575064 -0.030590 -0.435474 0.928367 0.174485 -0.328161 143 142 138
0.460068 -0.030590 -0.421274 0.043029 -0.999020 0.010330 142 141 137
0.618843 -0.022573 -0.307359 0.043029 -0.999020 0.010330 143 142 138
0.432333 -0.030590 -0.305751 0.043029 -0.999020 0.010330 143 142 138
0.580183 0.049452 -0.378434 0.477493 0.848686 0.227448 143 142 138
0.489065 0.083035 -0.312455 0.477493 0.848686 0.227448 142 141 137
0.572862 0.024419 -0.269659 0.477493 0.848686 0.227448 143 142 138
0.572862 0.024419 -0.269659 0.139601 0.706287 0.694024 143 142 138
0.489065 0.083035 -0.312455 0.139601 0.706287 0.694024 139 138 134
0.498537 -0.030590 -0.198729 0.139601 0.706287 0.694024 143 142 138
0.460068 -0.030590 -0.421274 -0.945015 0.235530 -0.226877 143 142 138
0.432333 -0.030590 -0.305751 -0.945015 0.235530 -0.226877 143 142 138
0.476399 0.050340 -0.405282 -0.945015 0.235530 -0.226877 143 142 138
0.489065 0.083035 -0.312455 -0.894959 0.444808 -0.034548 138 137 133
0.476399 0.050340 -0.405282 -0.894959 0.444808 -0.034548 143 142 138
0.432333 -0.030590 -0.305751 -0.894959 0.444808 -0.034548 142 141 137
0.171673 -0.029217 -0.303293 0.376900 0.525106 -0.763027 102 102 98
0.205341 0.042638 -0.237213 0.376900 0.525106 -0.763027 102 102 98
0.300372 -0.032312 -0.241852 0.376900 0.525106 -0.763027 102 102 98
0.090774 -0.029217 0.026183 -0.870920 0.489368 0.044905 102 102 98
0.155648 0.099058 -0.113542 -0.870920 0.489368 0.044905 102 102 98
0.078325 -0.029217 -0.215270 -0.870920 0.489368 0.044905 108 108 104
0.078325 -0.029217 -0.215270 -0.487412 0.703733 -0.516904 108 108 104
0.205341 0.042638 -0.237213 -0.487412 0.703733 -0.516904 102 102 98
0.171673 -0.029217 -0.303293 -0.487412 0.703733 -0.516904 102 102 98
0.300372 -0.032312 -0.241852 0.619995 0.782999 0.050185 102 102 98
0.205341 0.042638 -0.237213 0.619995 0.782999 0.050185 102 102 98
0.251618 -0.005724 -0.054362 0.619995 0.782999 0.050185 102 102 98
-0.006522 -0.030590 0.173656 -0.446556 0.378569 -0.810724 143 142 138
0.123786 0.094556 0.160318 -0.446556 0.378569 -0.810724 143 142 138
0.119498 -0.030590 0.104243 -0.446556 0.378569 -0.810724 143 142 138
0.110568 -0.021424 0.317293 -0.775619 0.056678 0.628652 143 142 138
0.070176 0.032300 0.262616 -0.775619 0.056678 0.628652 143 142 138
-0.006522 -0.030590 0.173656 -0.775619 0.056678 0.628652 143 142 138
0.189817 0.027631 0.303641 0.262571 -0.159332 0.951667 143 142 138
0.110568 -0.021424 0.317293 0.262571 -0.159332 0.951667 143 142 138
0.259376 -0.030590 0.274701 0.262571 -0.159332 0.951667 143 142 138
0.119498 -0.030590 0.104243 0.000000 -1.000000 0.000000 143 142 138
0.249801 -0.030590 0.142579 0.000000 -1.000000 0.000000 143 142 138
0.259376 -0.030590 0.274701 0.000000 -1.000000 0.000000 143 142 138
0.189817 0.027631 0.303641 0.599316 0.734789 0.317656 143 142 138
0.231660 0.056838 0.157135 0.599316 0.734789 0.317656 143 142 138
0.150301 0.095659 0.220837 0.599316 0.734789 0.317656 143 142 138
0.189817 0.027631 0.303641 -0.204887 0.706075 0.677849 143 142 138
0.150301 0.095659 0.220837 -0.204887 0.706075 0.677849 143 142 138
0.070176 0.032300 0.262616 -0.204887 0.706075 0.677849 143 142 138
0.070176 0.032300 0.262616 -0.686135 0.723013 0.080440 143 142 138
0.123786 0.094556 0.160318 -0.686135 0.723013 0.080440 143 142 138
-0.006522 -0.030590 0.173656 -0.686135 0.723013 0.080440 143 142 138
0.231660 0.056838 0.157135 0.321751 0.933552 -0.157976 143 142 138
0.123786 0.094556 0.160318 0.321751 0.933552 -0.157976 143 142 138
0.150301 0.095659 0.220837 0.321751 0.933552 -0.157976 143 142 138
0.249801 -0.030590 0.142579 0.275751 0.213272 -0.937271 143 142 138
0.119498 -0.030590 0.104243 0.275751 0.213272 -0.937271 143 142 138
0.231660 0.056838 0.157135 0.275751 0.213272 -0.937271 143 142 138
0.123786 0.094556 0.160318 0.114108 0.402978 -0.908068 143 142 138
0.231660 0.056838 0.157135 0.114108 0.402978 -0.908068 143 142 138
0.119498 -0.030590 0.104243 0.114108 0.402978 -0.908068 143 142 138
0.193492 0.126102 -0.735003 0.832690 0.445542 -0.328816 59 59 57
0.266191 0.084561 -0.607189 0.832690 0.445542 -0.328816 60 60 58
0.290911 -0.034690 -0.706173 0.832690 0.445542 -0.328816 59 59 57
0.266191 0.084561 -0.607189 -0.105483 0.809660 0.577341 59 59 57
0.122147 0.090697 -0.642112 -0.105483 0.809660 0.577341 59 59 57
0.224612 0.031723 -0.540687 -0.105483 0.809660 0.577341 59 59 57
0.224612 -0.030590 -0.540687 0.847913 0.000000 0.530135 59 59 57
0.266191 0.084561 -0.607189 0.847913 0.000000 0.530135 61 61 59
0.224612 0.031723 -0.540687 0.847913 0.000000 0.530135 59 59 57
-0.306387 0.032956 -0.728013 -0.845313 0.534194 -0.009063 102 102 98
-0.337582 -0.015126 -0.652506 -0.845313 0.534194 -0.009063 102 102 98
-0.269365 0.093893 -0.589414 -0.845313 0.534194 -0.009063 102 102 98
-0.337582 -0.015126 -0.652506 -0.868791 -0.167895 -0.465846 102 102 98
-0.306387 0.032956 -0.728013 -0.868791 -0.167895 -0.465846 102 102 98
-0.270320 -0.033244 -0.771419 -0.868791 -0.167895 -0.465846 102 102 98
-0.080784 -0.031375 -0.733380 0.240345 0.040971 -0.969822 102 102 98
-0.196227 0.081684 -0.757213 0.240345 0.040971 -0.969822 102 102 98
-0.092110 0.034662 -0.733397 0.240345 0.040971 -0.969822 102 102 98
-0.080784 -0.031375 -0.733380 0.868980 -0.020478 0.494424 102 102 98
-0.129632 0.144435 -0.640246 0.868980 -0.020478 0.494424 102 102 98
-0.190146 -0.033743 -0.541269 0.868980 -0.020478 0.494424 102 102 98
-0.190146 -0.033743 -0.541269 0.011070 -0.999921 -0.006024 102 102 98
-0.270320 -0.033244 -0.771419 0.011070 -0.999921 -0.006024 102 102 98
-0.080784 -0.031375 -0.733380 0.011070 -0.999921 -0.006024 102 102 98
0.207137 -0.033632 0.824672 -0.960697 -0.030261 0.275943 102 102 98
0.142040 0.045183 0.606680 -0.960697 -0.030261 0.275943 102 102 98
0.120417 -0.029228 0.523239 -0.960697 -0.030261 0.275943 102 102 98
0.390041 -0.029228 0.791075 0.142848 0.515048 0.845175 102 102 98
0.304454 0.063043 0.749311 0.142848 0.515048 0.845175 102 102 98
0.207137 -0.033632 0.824672 0.142848 0.515048 0.845175 102 102 98
0.259872 0.135493 0.584071 -0.597585 0.669095 -0.441819 102 102 98
0.120417 -0.029228 0.523239 -0.597585 0.669095 -0.441819 102 102 98
0.142040 0.045183 0.606680 -0.597585 0.669095 -0.441819 102 102 98
0.218456 -0.029228 0.390636 0.668619 0.489369 -0.559881 102 102 98
0.259872 0.135493 0.584071 0.668619 0.489369 -0.559881 102 102 98
0.417778 -0.029228 0.628669 0.668619 0.489369 -0.559881 102 102 98
0.417778 -0.029228 0.628669 0.700325 0.703733 0.119605 102 102 98
0.304454 0.063043 0.749311 0.700325 0.703733 0.119605 102 102 98
0.390041 -0.029228 0.791075 0.700325 0.703733 0.119605 102 102 98
0.207137 -0.033632 0.824672 -0.455028 0.785310 0.419808 102 102 98
0.304454 0.063043 0.749311 -0.455028 0.785310 0.419808 102 102 98
0.142040 0.045183 0.606680 -0.455028 0.785310 0.419808 102 102 98
0.034319 -0.030590 -0.386742 0.861286 0.378570 0.338928 181 181 175
-0.092116 0.141805 -0.258002 0.861286 0.378570 0.338928 181 181 175
-0.038255 -0.030590 -0.202316 0.861286 0.378570 0.338928 181 181 175
-0.216150 -0.030590 -0.436067 0.192962 0.051459 -0.979856 181 181 175
-0.125238 0.056043 -0.413614 0.192962 0.051459 -0.979856 181 181 175
0.034319 -0.030590 -0.386742 0.192962 0.051459 -0.979856 181 181 175
-0.288172 0.049613 -0.351896 -0.816532 -0.147487 -0.558143 181 181 175
-0.216150 -0.030590 -0.436067 -0.816532 -0.147487 -0.558143 181 181 175
-0.336475 -0.030590 -0.260039 -0.816532 -0.147487 -0.558143 181 181 175
-0.038255 -0.030590 -0.202316 0.000000 -1.000000 0.000000 181 181 175
-0.210129 -0.030590 -0.128370 0.000000 -1.000000 0.000000 180 180 174
-0.336475 -0.030590 -0.260039 0.000000 -1.000000 0.000000 180 180 174
-0.288172 0.049613 -0.351896 -0.660976 0.741636 0.114398 180 180 174
-0.203738 0.096026 -0.164941 -0.660976 0.741636 0.114398 181 181 175
-0.171261 0.145416 -0.297487 -0.660976 0.741636 0.114398 181 181 175
-0.125238 0.056043 -0.413614 0.476764 0.723013 -0.499949 181 181 175
-0.092116 0.141805 -0.258002 0.476764 0.723013 -0.499949 181 181 175
0.034319 -0.030590 -0.386742 0.476764 0.723013 -0.499949 181 181 175
-0.210129 -0.030590 -0.128370 0.383822 0.238306 0.892127 180 180 174
-0.038255 -0.030590 -0.202316 0.383822 0.238306 0.892127 181 181 175
-0.203738 0.096026 -0.164941 0.383822 0.238306 0.892127 181 181 175
-0.092116 0.141805 -0.258002 0.483336 0.402179 0.777585 181 181 175
-0.203738 0.096026 -0.164941 0.483336 0.402179 0.777585 181 181 175
-0.038255 -0.030590 -0.202316 0.483336 0.402179 0.777585 181 181 175
-0.776748 -0.033137 -0.087246 -0.940980 -0.039271 -0.336177 102 102 98
-0.698646 0.048652 -0.315412 -0.940980 -0.039271 -0.336177 102 102 98
-0.665534 -0.028983 -0.399026 -0.940980 -0.039271 -0.336177 102 102 98
-0.603108 -0.028983 -0.007460 -0.365707 0.524952 0.768560 102 102 98
-0.649535 0.067286 -0.095306 -0.365707 0.524952 0.768560 102 102 98
-0.776748 -0.033137 -0.087246 -0.365707 0.524952 0.768560 102 102 98
-0.585446 0.142875 -0.261972 -0.222122 0.669095 -0.709206 102 102 98
-0.665534 -0.028983 -0.399026 -0.222122 0.669095 -0.709206 102 102 98
-0.698646 0.048652 -0.315412 -0.222122 0.669095 -0.709206 102 102 98
-0.501344 -0.028983 -0.450450 0.870150 0.489369 -0.057938 102 102 98
-0.585446 0.142875 -0.261972 0.870150 0.489369 -0.057938 102 102 98
-0.479824 -0.028983 -0.127248 0.870150 0.489369 -0.057938 102 102 98
-0.479824 -0.028983 -0.127248 0.495096 0.703733 0.509549 102 102 98
-0.649535 0.067286 -0.095306 0.495096 0.703733 0.509549 102 102 98
-0.603108 -0.028983 -0.007460 0.495096 0.703733 0.509549 102 102 98
-0.776748 -0.033137 -0.087246 -0.615287 0.785115 0.070821 102 102 98
-0.649535 0.067286 -0.095306 -0.615287 0.785115 0.070821 102 102 98
-0.698646 0.048652 -0.315412 -0.615287 0.785115 0.070821 102 102 98
-0.155018 0.067901 0.170791 0.480881 0.364660 0.797356 59 59 57
-0.267088 0.068695 0.238016 0.480881 0.364660 0.797356 59 59 57
-0.190461 -0.028480 0.236244 0.480881 0.364660 0.797356 59 59 57
-0.267088 0.068695 0.238016 0.099621 0.060450 0.993188 61 61 58
-0.362551 -0.011442 0.252469 0.099621 0.060450 0.993188 59 59 57
-0.190461 -0.028480 0.236244 0.099621 0.060450 0.993188 59 59 57
-0.238302 0.077575 0.087703 0.047879 0.996533 0.068046 59 59 57
-0.267088 0.068695 0.238016 0.047879 0.996533 0.068046 60 60 58
-0.155018 0.067901 0.170791 0.047879 0.996533 0.068046 59 59 57
-0.328495 -0.030590 0.100058 -0.283277 0.127639 -0.950506 59 59 57
-0.238302 0.077575 0.087703 -0.283277 0.127639 -0.950506 59 59 57
-0.227710 -0.030590 0.070021 -0.283277 0.127639 -0.950506 59 59 57
-0.155018 0.067901 0.170791 0.708386 0.108799 -0.697390 59 59 57
-0.144318 -0.024833 0.167193 0.708386 0.108799 -0.697390 59 59 57
-0.238302 0.077575 0.087703 0.708386 0.108799 -0.697390 59 59 57
-0.328495 -0.030590 0.100058 0.040567 -0.998848 -0.025646 59 59 57
-0.144318 -0.024833 0.167193 0.040567 -0.998848 -0.025646 59 59 57
-0.190461 -0.028480 0.236244 0.040567 -0.998848 -0.025646 59 59 57
-0.482904 -0.030590 0.423448 -0.407184 0.402712 -0.819771 181 181 175
-0.513836 0.286053 0.594363 -0.407184 0.402712 -0.819771 181 181 175
-0.421864 0.340260 0.575309 -0.407184 0.402712 -0.819771 181 181 175
-0.098179 0.097397 0.678058 0.580878 0.809661 0.083847 181 181 175
-0.084230 0.105083 0.507197 0.580878 0.809661 0.083847 181 181 175
-0.232305 0.220126 0.422138 0.580878 0.809661 0.083847 181 181 175
-0.260007 -0.030590 0.815621 0.463488 0.307270 0.831122 174 174 168
-0.102226 -0.030590 0.727632 0.463488 0.307270 0.831122 177 177 171
-0.098179 0.097397 0.678058 0.463488 0.307270 0.831122 181 181 175
-0.084230 -0.030590 0.507197 0.498098 0.000000 -0.867121 181 181 175
-0.232305 0.220126 0.422138 0.498098 0.000000 -0.867121 181 181 175
-0.084230 0.105083 0.507197 0.498098 0.000000 -0.867121 181 181 175
-0.084230 -0.030590 0.507197 0.996684 -0.000000 0.081367 181 181 175
-0.098179 0.097397 0.678058 0.996684 -0.000000 0.081367 181 181 175
-0.102226 -0.030590 0.727632 0.996684 -0.000000 0.081367 181 181 175
-0.539151 -0.032243 0.787680 -0.183148 0.075254 0.980201 181 181 175
-0.360385 0.142294 0.807682 -0.183148 0.075254 0.980201 181 181 175
-0.516985 0.102478 0.781479 -0.183148 0.075254 0.980201 181 181 175
-0.360385 0.142294 0.807682 -0.287288 0.698824 0.655065 181 181 175
-0.296575 0.233485 0.738384 -0.287288 0.698824 0.655065 180 180 175
-0.516985 0.102478 0.781479 -0.287288 0.698824 0.655065 181 181 175
-0.539151 -0.032243 0.787680 -0.988177 -0.014128 -0.152664 181 181 175
-0.513836 0.286053 0.594363 -0.988177 -0.014128 -0.152664 178 178 172
-0.482904 -0.030590 0.423448 -0.988177 -0.014128 -0.152664 181 181 175
-0.482904 -0.030590 0.423448 -0.000000 -1.000000 0.000000 181 181 175
-0.347290 -0.030590 0.356088 -0.000000 -1.000000 0.000000 181 181 175
-0.102226 -0.030590 0.727632 -0.000000 -1.000000 0.000000 181 181 175
-0.449657 -0.030590 0.237838 0.595260 0.378570 0.708767 143 142 138
-0.589344 0.108980 0.280606 0.595260 0.378570 0.708767 143 142 138
-0.572528 -0.030590 0.341031 0.595260 0.378570 0.708767 143 142 138
-0.608822 -0.020368 0.106002 0.639025 0.056674 -0.767095 143 142 138
-0.552808 0.039548 0.157091 0.639025 0.056674 -0.767095 143 142 138
-0.449657 -0.030590 0.237838 0.639025 0.056674 -0.767095 143 142 138
-0.692577 0.034342 0.138074 -0.442090 -0.159330 -0.882706 143 142 138
-0.608822 -0.020368 0.106002 -0.442090 -0.159330 -0.882706 143 142 138
-0.762424 -0.030590 0.184776 -0.442090 -0.159330 -0.882706 143 142 138
-0.572528 -0.030590 0.341031 0.000000 -1.000000 0.000000 143 142 138
-0.723381 -0.030590 0.327262 0.000000 -1.000000 0.000000 142 141 137
-0.762424 -0.030590 0.184776 0.000000 -1.000000 0.000000 143 142 138
-0.692577 0.034342 0.138074 -0.647036 0.733890 -0.206760 143 142 138
-0.704416 0.071334 0.306426 -0.647036 0.733890 -0.206760 143 142 138
-0.632049 0.111031 0.220865 -0.647036 0.733890 -0.206760 143 142 138
-0.692577 0.034342 0.138074 0.069602 0.705962 -0.704821 143 142 138
-0.632049 0.111031 0.220865 0.069602 0.705962 -0.704821 143 142 138
-0.552808 0.039548 0.157091 0.069602 0.705962 -0.704821 143 142 138
-0.552808 0.039548 0.157091 0.657523 0.723013 -0.211934 143 142 138
-0.589344 0.108980 0.280606 0.657523 0.723013 -0.211934 143 142 138
-0.449657 -0.030590 0.237838 0.657523 0.723013 -0.211934 143 142 138
-0.723381 -0.030590 0.327262 -0.088769 0.215316 0.972501 143 142 138
-0.572528 -0.030590 0.341031 -0.088769 0.215316 0.972501 143 142 138
-0.704416 0.071334 0.306426 -0.088769 0.215316 0.972501 143 142 138
-0.589344 0.108980 0.280606 0.072607 0.403607 0.912047 143 142 138
-0.704416 0.071334 0.306426 0.072607 0.403607 0.912047 143 142 138
-0.572528 -0.030590 0.341031 0.072607 0.403607 0.912047 143 142 138
0.575064 -0.030590 -0.435474 0.007400 -0.998175 0.059931 143 142 138
0.618843 -0.022573 -0.307359 0.007400 -0.998175 0.059931 143 142 138
0.460068 -0.030590 -0.421274 0.007400 -0.998175 0.059931 143 142 138
0.618843 -0.022573 -0.307359 0.042700 -0.998739 -0.026414 143 142 138
0.498537 -0.030590 -0.198729 0.042700 -0.998739 -0.026414 143 142 138
0.432333 -0.030590 -0.305751 0.042700 -0.998739 -0.026414 143 142 138
0.580183 0.049452 -0.378434 0.212293 0.558078 -0.802173 143 142 138
0.575064 -0.030590 -0.435474 0.212293 0.558078 -0.802173 143 142 138
0.476399 0.050340 -0.405282 0.212293 0.558078 -0.802173 143 142 138
0.572862 0.024419 -0.269659 0.773823 0.603899 0.191058 143 142 138
0.618843 -0.022573 -0.307359 0.773823 0.603899 0.191058 143 142 138
0.580183 0.049452 -0.378434 0.773823 0.603899 0.191058 143 142 138
0.476399 0.050340 -0.405282 0.096566 0.934596 -0.342353 143 142 138
0.489065 0.083035 -0.312455 0.096566 0.934596 -0.342353 142 141 137
0.580183 0.049452 -0.378434 0.096566 0.934596 -0.342353 143 142 138
0.476399 0.050340 -0.405282 -0.119666 0.215651 -0.969110 143 142 138
0.575064 -0.030590 -0.435474 -0.119666 0.215651 -0.969110 143 142 138
0.460068 -0.030590 -0.421274 -0.119666 0.215651 -0.969110 143 142 138
0.155648 0.099058 -0.113542 0.264128 0.646270 0.715941 102 102 98
0.090774 -0.029217 0.026183 0.264128 0.646270 0.715941 102 102 98
0.251618 -0.005724 -0.054362 0.264128 0.646270 0.715941 102 102 98
0.155648 0.099058 -0.113542 -0.487412 0.703733 -0.516904 102 102 98
0.300372 -0.032312 -0.241852 0.003104 -0.989977 0.141194 102 102 98
0.251618 -0.005724 -0.054362 0.003104 -0.989977 0.141194 102 102 98
0.078325 -0.029217 -0.215270 0.003104 -0.989977 0.141194 102 102 98
0.251618 -0.005724 -0.054362 0.140957 -0.989989 -0.007268 102 102 98
0.090774 -0.029217 0.026183 0.140957 -0.989989 -0.007268 102 102 98
0.078325 -0.029217 -0.215270 0.140957 -0.989989 -0.007268 102 102 98
0.078325 -0.029217 -0.215270 -0.015961 -0.999729 -0.016926 105 105 101
0.171673 -0.029217 -0.303293 -0.015961 -0.999729 -0.016926 102 102 98
0.300372 -0.032312 -0.241852 -0.015961 -0.999729 -0.016926 102 102 98
0.205341 0.042638 -0.237213 0.740051 0.672484 -0.009430 102 102 98
0.155648 0.099058 -0.113542 0.740051 0.672484 -0.009430 102 102 98
0.251618 -0.005724 -0.054362 0.740051 0.672484 -0.009430 102 102 98
0.259376 -0.030590 0.274701 -0.049772 -0.997925 0.040843 143 142 138
0.110568 -0.021424 0.317293 -0.049772 -0.997925 0.040843 143 142 138
0.119498 -0.030590 0.104243 -0.049772 -0.997925 0.040843 143 142 138
0.110568 -0.021424 0.317293 0.024224 -0.998739 0.043979 143 142 138
-0.006522 -0.030590 0.173656 0.024224 -0.998739 0.043979 143 142 138
0.119498 -0.030590 0.104243 0.024224 -0.998739 0.043979 143 142 138
0.189817 0.027631 0.303641 0.682850 0.654076 0.325423 143 142 138
0.259376 -0.030590 0.274701 0.682850 0.654076 0.325423 143 142 138
0.231660 0.056838 0.157135 0.682850 0.654076 0.325423 143 142 138
0.070176 0.032300 0.262616 -0.238828 0.598617 0.764604 143 142 138
0.110568 -0.021424 0.317293 -0.238828 0.598617 0.764604 143 142 138
0.189817 0.027631 0.303641 -0.238828 0.598617 0.764604 143 142 138
0.070176 0.032300 0.262616 -0.532646 0.817654 0.218474 143 142 138
0.150301 0.095659 0.220837 -0.532646 0.817654 0.218474 143 142 138
0.123786 0.094556 0.160318 -0.532646 0.817654 0.218474 143 142 138
0.231660 0.056838 0.157135 0.974296 0.213919 -0.070607 143 142 138
0.259376 -0.030590 0.274701 0.974296 0.213919 -0.070607 143 142 138
0.249801 -0.030590 0.142579 0.974296 0.213919 -0.070607 143 142 138
0.193492 0.126102 -0.735003 -0.039615 0.943442 0.329161 59 59 57
0.122147 0.090697 -0.642112 -0.039615 0.943442 0.329161 59 59 57
0.266191 0.084561 -0.607189 -0.039615 0.943442 0.329161 59 59 57
0.122147 0.090697 -0.642112 -0.328045 0.634175 0.700149 59 59 57
0.134453 -0.007362 -0.547527 -0.328045 0.634175 0.700149 60 60 58
0.224612 0.031723 -0.540687 -0.328045 0.634175 0.700149 59 59 57
0.134453 -0.007362 -0.547527 -0.849351 0.307332 0.429126 59 59 57
0.122147 0.090697 -0.642112 -0.849351 0.307332 0.429126 59 59 57
0.086071 -0.030590 -0.626653 -0.849351 0.307332 0.429126 59 59 57
0.122147 0.090697 -0.642112 -0.932864 0.302423 0.195718 59 59 57
0.089644 0.038085 -0.715742 -0.932864 0.302423 0.195718 59 59 57
0.086071 -0.030590 -0.626653 -0.932864 0.302423 0.195718 59 59 57
0.224612 -0.030590 -0.540687 0.920807 -0.117753 0.371818 59 59 57
0.290911 -0.034690 -0.706173 0.920807 -0.117753 0.371818 59 59 57
0.266191 0.084561 -0.607189 0.920807 -0.117753 0.371818 61 61 59
0.224612 -0.030590 -0.540687 -0.075651 0.000000 0.997134 59 59 57
0.224612 0.031723 -0.540687 -0.075651 0.000000 0.997134 59 59 57
0.134453 -0.007362 -0.547527 -0.075651 0.000000 0.997134 62 62 60
0.089644 0.038085 -0.715742 -0.456636 0.360814 -0.813202 59 59 57
0.193492 0.126102 -0.735003 -0.456636 0.360814 -0.813202 59 59 57
0.103284 -0.030996 -0.754052 -0.456636 0.360814 -0.813202 59 59 57
0.103284 -0.030996 -0.754052 -0.983795 -0.120755 -0.132534 59 59 57
0.086071 -0.030590 -0.626653 -0.983795 -0.120755 -0.132534 59 59 57
0.089644 0.038085 -0.715742 -0.983795 -0.120755 -0.132534 59 59 57
0.089644 0.038085 -0.715742 -0.653837 0.721754 -0.227086 61 61 59
0.122147 0.090697 -0.642112 -0.653837 0.721754 -0.227086 59 59 57
0.193492 0.126102 -0.735003 -0.653837 0.721754 -0.227086 59 59 57
0.290911 -0.034690 -0.706173 0.246737 -0.024212 -0.968780 59 59 57
0.103284 -0.030996 -0.754052 0.246737 -0.024212 -0.968780 59 59 57
0.193492 0.126102 -0.735003 0.246737 -0.024212 -0.968780 59 59 57
0.290911 -0.034690 -0.706173 -0.012309 -0.999727 0.019837 59 59 57
0.224612 -0.030590 -0.540687 -0.012309 -0.999727 0.019837 60 60 58
0.086071 -0.030590 -0.626653 -0.012309 -0.999727 0.019837 59 59 57
0.224612 -0.030590 -0.540687 -0.256456 -0.873735 0.413300 59 59 57
0.134453 -0.007362 -0.547527 -0.256456 -0.873735 0.413300 62 62 60
0.086071 -0.030590 -0.626653 -0.256456 -0.873735 0.413300 59 59 57
0.086071 -0.030590 -0.626653 -0.019813 -0.999804 0.000512 59 59 57
0.103284 -0.030996 -0.754052 -0.019813 -0.999804 0.000512 59 59 57
0.290911 -0.034690 -0.706173 -0.019813 -0.999804 0.000512 59 59 57
-0.129632 0.144435 -0.640246 0.164298 0.435777 0.884932 102 102 98
-0.269365 0.093893 -0.589414 0.164298 0.435777 0.884932 102 102 98
-0.190146 -0.033743 -0.541269 0.164298 0.435777 0.884932 102 102 98
-0.129632 0.144435 -0.640246 -0.406517 0.881202 -0.241302 102 102 98
-0.196227 0.081684 -0.757213 -0.406517 0.881202 -0.241302 102 102 98
-0.269365 0.093893 -0.589414 -0.406517 0.881202 -0.241302 102 102 98
-0.196227 0.081684 -0.757213 -0.447120 0.856694 -0.257216 102 102 98
-0.306387 0.032956 -0.728013 -0.447120 0.856694 -0.257216 102 102 98
-0.269365 0.093893 -0.589414 -0.447120 0.856694 -0.257216 102 102 98
-0.306387 0.032956 -0.728013 -0.382176 0.351999 -0.854423 102 102 98
-0.196227 0.081684 -0.757213 -0.382176 0.351999 -0.854423 102 102 98
-0.270320 -0.033244 -0.771419 -0.382176 0.351999 -0.854423 102 102 98
-0.337582 -0.015126 -0.652506 -0.606713 -0.078171 0.791068 102 102 98
-0.190146 -0.033743 -0.541269 -0.606713 -0.078171 0.791068 102 102 98
-0.269365 0.093893 -0.589414 -0.606713 -0.078171 0.791068 102 102 98
-0.080784 -0.031375 -0.733380 0.196825 -0.005702 -0.980422 102 102 98
-0.270320 -0.033244 -0.771419 0.196825 -0.005702 -0.980422 102 102 98
-0.196227 0.081684 -0.757213 0.196825 -0.005702 -0.980422 102 102 98
-0.129632 0.144435 -0.640246 0.438418 0.663923 -0.605802 102 102 98
-0.092110 0.034662 -0.733397 0.438418 0.663923 -0.605802 102 102 98
-0.196227 0.081684 -0.757213 0.438418 0.663923 -0.605802 102 102 98
-0.080784 -0.031375 -0.733380 0.966877 0.165871 0.193997 102 102 98
-0.092110 0.034662 -0.733397 0.966877 0.165871 0.193997 102 102 98
-0.129632 0.144435 -0.640246 0.966877 0.165871 0.193997 102 102 98
-0.337582 -0.015126 -0.652506 -0.166450 -0.984467 0.055850 102 102 98
-0.270320 -0.033244 -0.771419 -0.166450 -0.984467 0.055850 102 102 98
-0.190146 -0.033743 -0.541269 -0.166450 -0.984467 0.055850 102 102 98
0.218456 -0.029228 0.390636 -0.597585 0.669095 -0.441819 102 102 98
0.417778 -0.029228 0.628669 0.700324 0.703733 0.119605 102 102 98
0.259872 0.135493 0.584071 0.700324 0.703733 0.119605 102 102 98
0.304454 0.063043 0.749311 0.700324 0.703733 0.119605 102 102 98
0.207137 -0.033632 0.824672 0.005768 -0.999851 -0.016269 102 102 98
0.120417 -0.029228 0.523239 0.005768 -0.999851 -0.016269 102 102 98
0.417778 -0.029228 0.628669 0.005768 -0.999851 -0.016269 102 102 98
0.120417 -0.029228 0.523239 -0.000000 -1.000000 0.000000 102 102 98
0.218456 -0.029228 0.390636 -0.000000 -1.000000 0.000000 102 102 98
0.417778 -0.029228 0.628669 -0.000000 -1.000000 0.000000 102 102 98
0.207137 -0.033632 0.824672 0.024853 -0.999682 0.004244 102 102 98
0.417778 -0.029228 0.628669 0.024853 -0.999682 0.004244 102 102 98
0.390041 -0.029228 0.791075 0.024853 -0.999682 0.004244 102 102 98
0.304454 0.063043 0.749311 -0.483904 0.745937 0.457619 102 102 98
0.259872 0.135493 0.584071 -0.483904 0.745937 0.457619 102 102 98
0.142040 0.045183 0.606680 -0.483904 0.745937 0.457619 102 102 98
-0.216150 -0.030590 -0.436067 -0.000000 -1.000000 0.000000 181 181 175
0.034319 -0.030590 -0.386742 0.000000 -1.000000 -0.000000 181 181 175
-0.288172 0.049613 -0.351896 -0.742239 0.646992 0.174595 180 180 174
-0.336475 -0.030590 -0.260039 -0.742239 0.646992 0.174595 165 165 159
-0.203738 0.096026 -0.164941 -0.742239 0.646992 0.174595 181 181 175
-0.125238 0.056043 -0.413614 -0.433027 0.623200 -0.651236 181 181 175
-0.216150 -0.030590 -0.436067 -0.433027 0.623200 -0.651236 181 181 175
-0.171261 0.145416 -0.297487 -0.433027 0.623200 -0.651236 181 181 175
-0.216150 -0.030590 -0.436067 -0.171049 0.636066 -0.752438 181 181 175
-0.288172 0.049613 -0.351896 -0.171049 0.636066 -0.752438 180 180 174
-0.171261 0.145416 -0.297487 -0.171049 0.636066 -0.752438 181 181 175
-0.125238 0.056043 -0.413614 0.290693 0.810479 -0.508548 181 181 175
-0.171261 0.145416 -0.297487 0.290693 0.810479 -0.508548 181 181 175
-0.092116 0.141805 -0.258002 0.290693 0.810479 -0.508548 181 181 175
-0.203738 0.096026 -0.164941 -0.117452 0.939645 0.321360 181 181 175
-0.092116 0.141805 -0.258002 -0.117452 0.939645 0.321360 181 181 175
-0.171261 0.145416 -0.297487 -0.117452 0.939645 0.321360 181 181 175
-0.203738 0.096026 -0.164941 -0.702186 0.230063 0.673800 181 181 175
-0.336475 -0.030590 -0.260039 -0.702186 0.230063 0.673800 181 181 175
-0.210129 -0.030590 -0.128370 -0.702186 0.230063 0.673800 181 181 175
-0.501344 -0.028983 -0.450450 -0.222122 0.669095 -0.709206 102 102 98
-0.585446 0.142875 -0.261972 0.495096 0.703733 0.509549 102 102 98
-0.776748 -0.033137 -0.087246 0.012812 -0.999880 -0.008754 102 102 98
-0.665534 -0.028983 -0.399026 0.012812 -0.999880 -0.008754 102 102 98
-0.479824 -0.028983 -0.127248 0.012812 -0.999880 -0.008754 102 102 98
-0.665534 -0.028983 -0.399026 -0.000000 -1.000000 0.000000 102 102 98
-0.501344 -0.028983 -0.450450 -0.000000 -1.000000 0.000000 102 102 98
-0.479824 -0.028983 -0.127248 -0.000000 -1.000000 0.000000 102 102 98
-0.479824 -0.028983 -0.127248 0.016241 -0.999729 0.016715 102 102 98
-0.603108 -0.028983 -0.007460 0.016241 -0.999729 0.016715 102 102 98
-0.776748 -0.033137 -0.087246 0.016241 -0.999729 0.016715 102 102 98
-0.649535 0.067286 -0.095306 -0.660665 0.745937 0.084263 102 102 98
-0.585446 0.142875 -0.261972 -0.660665 0.745937 0.084263 102 102 98
-0.698646 0.048652 -0.315412 -0.660665 0.745937 0.084263 102 102 98
-0.362551 -0.011442 0.252469 -0.975525 0.012376 -0.219540 59 59 57
-0.329584 0.027037 0.108145 -0.975525 0.012376 -0.219540 59 59 57
-0.328495 -0.030590 0.100058 -0.975525 0.012376 -0.219540 59 59 57
-0.362551 -0.011442 0.252469 -0.636486 0.768980 0.059629 59 59 57
-0.267088 0.068695 0.238016 -0.636486 0.768980 0.059629 61 61 58
-0.329584 0.027037 0.108145 -0.636486 0.768980 0.059629 59 59 57
-0.267088 0.068695 0.238016 -0.491225 0.869987 -0.042671 61 61 58
-0.238302 0.077575 0.087703 -0.491225 0.869987 -0.042671 59 59 57
-0.329584 0.027037 0.108145 -0.491225 0.869987 -0.042671 59 59 57
-0.155018 0.067901 0.170791 0.827366 0.073869 0.556785 59 59 57
-0.190461 -0.028480 0.236244 0.827366 0.073869 0.556785 59 59 57
-0.144318 -0.024833 0.167193 0.827366 0.073869 0.556785 59 59 57
-0.328495 -0.030590 0.100058 -0.283696 0.128008 -0.950332 59 59 57
-0.329584 0.027037 0.108145 -0.283696 0.128008 -0.950332 59 59 57
-0.238302 0.077575 0.087703 -0.283696 0.128008 -0.950332 59 59 57
-0.144318 -0.024833 0.167193 0.741448 0.178353 -0.646873 59 59 57
-0.227710 -0.030590 0.070021 0.741448 0.178353 -0.646873 59 59 57
-0.238302 0.077575 0.087703 0.741448 0.178353 -0.646873 59 59 57
-0.190461 -0.028480 0.236244 -0.088203 -0.990580 0.104742 59 59 57
-0.362551 -0.011442 0.252469 -0.088203 -0.990580 0.104742 59 59 57
-0.328495 -0.030590 0.100058 -0.088203 -0.990580 0.104742 59 59 57
-0.328495 -0.030590 0.100058 0.014042 -0.998791 0.047116 59 59 57
-0.227710 -0.030590 0.070021 0.014042 -0.998791 0.047116 59 59 57
-0.144318 -0.024833 0.167193 0.014042 -0.998791 0.047116 59 59 57
-0.232305 0.220126 0.422138 -0.407184 0.402712 -0.819771 181 181 175
-0.232305 0.220126 0.422138 -0.407184 0.402711 -0.819771 181 181 175
-0.347290 -0.030590 0.356088 -0.407184 0.402711 -0.819771 181 181 175
-0.482904 -0.030590 0.423448 -0.407184 0.402711 -0.819771 181 181 175
-0.421864 0.340260 0.575309 0.580878 0.809661 0.083848 181 181 175
-0.296575 0.233485 0.738384 0.580878 0.809661 0.083848 180 180 174
-0.232305 0.220126 0.422138 0.580878 0.809661 0.083848 181 181 175
-0.296575 0.233485 0.738384 0.580877 0.809661 0.083848 180 180 174
-0.098179 0.097397 0.678058 0.580877 0.809661 0.083848 181 181 175
-0.232305 0.220126 0.422138 0.580877 0.809661 0.083848 181 181 175
-0.098179 0.097397 0.678058 0.463489 0.307269 0.831122 181 181 175
-0.296575 0.233485 0.738384 0.463489 0.307269 0.831122 180 180 174
-0.260007 -0.030590 0.815621 0.463489 0.307269 0.831122 174 174 168
-0.296575 0.233485 0.738384 0.463488 0.307269 0.831123 180 180 174
-0.360385 0.142294 0.807682 0.463488 0.307269 0.831123 181 181 175
-0.260007 -0.030590 0.815621 0.463488 0.307269 0.831123 174 174 168
-0.347290 -0.030590 0.356088 0.498098 -0.000000 -0.867121 181 181 175
-0.084230 0.105083 0.507197 0.996684 0.000000 0.081367 181 181 175
-0.539151 -0.032243 0.787680 -0.099517 -0.012095 0.994962 181 181 175
-0.260007 -0.030590 0.815621 -0.099517 -0.012095 0.994962 174 174 168
-0.360385 0.142294 0.807682 -0.099517 -0.012095 0.994962 181 181 175
-0.421864 0.340260 0.575309 -0.272315 0.695690 0.664725 181 181 175
-0.513836 0.286053 0.594363 -0.272315 0.695690 0.664725 181 181 175
-0.296575 0.233485 0.738384 -0.272315 0.695690 0.664725 180 180 175
-0.513836 0.286053 0.594363 -0.277893 0.688046 0.670349 181 181 175
-0.516985 0.102478 0.781479 -0.277893 0.688046 0.670349 181 181 175
-0.296575 0.233485 0.738384 -0.277893 0.688046 0.670349 180 180 175
-0.539151 -0.032243 0.787680 -0.974812 0.167185 0.147617 181 181 175
-0.516985 0.102478 0.781479 -0.974812 0.167185 0.147617 181 181 175
-0.513836 0.286053 0.594363 -0.974812 0.167185 0.147617 178 178 172
-0.084230 -0.030590 0.507197 0.000000 -1.000000 -0.000000 181 181 175
-0.260007 -0.030590 0.815621 0.000000 -1.000000 0.000000 177 177 171
-0.482904 -0.030590 0.423448 0.006279 -0.999974 -0.003569 181 181 175
-0.260007 -0.030590 0.815621 0.006279 -0.999974 -0.003569 177 177 171
-0.539151 -0.032243 0.787680 0.006279 -0.999974 -0.003569 181 181 175
-0.762424 -0.030590 0.184776 0.040909 -0.997925 -0.049717 143 142 138
-0.608822 -0.020368 0.106002 0.040909 -0.997925 -0.049717 143 142 138
-0.572528 -0.030590 0.341031 0.040909 -0.997925 -0.049717 143 142 138
-0.608822 -0.020368 0.106002 -0.032291 -0.998739 -0.038449 143 142 138
-0.449657 -0.030590 0.237838 -0.032291 -0.998739 -0.038449 143 142 138
-0.572528 -0.030590 0.341031 -0.032291 -0.998739 -0.038449 143 142 138
-0.692577 0.034342 0.138074 -0.734467 0.650171 -0.194513 143 142 138
-0.762424 -0.030590 0.184776 -0.734467 0.650171 -0.194513 143 142 138
-0.704416 0.071334 0.306426 -0.734467 0.650171 -0.194513 143 142 138
-0.552808 0.039548 0.157091 0.086061 0.598616 -0.796399 143 142 138
-0.608822 -0.020368 0.106002 0.086061 0.598616 -0.796399 143 142 138
-0.692577 0.034342 0.138074 0.086061 0.598616 -0.796399 143 142 138
-0.552808 0.039548 0.157091 0.482126 0.816898 -0.316594 143 142 138
-0.632049 0.111031 0.220865 0.482126 0.816898 -0.316594 143 142 138
-0.589344 0.108980 0.280606 0.482126 0.816898 -0.316594 143 142 138
-0.704416 0.071334 0.306426 -0.259064 0.941052 0.217499 143 142 138
-0.589344 0.108980 0.280606 -0.259064 0.941052 0.217499 143 142 138
-0.632049 0.111031 0.220865 -0.259064 0.941052 0.217499 143 142 138
-0.704416 0.071334 0.306426 -0.939188 0.227368 0.257352 143 142 138
-0.762424 -0.030590 0.184776 -0.939188 0.227368 0.257352 143 142 138
-0.723381 -0.030590 0.327262 -0.939188 0.227368 0.257352 143 142 138
0.755259 -0.030590 0.440583 -0.135583 0.250152 0.958667 59 59 57
0.675526 0.188180 0.372221 -0.135583 0.250152 0.958667 59 59 57
0.419741 -0.030590 0.393131 -0.135583 0.250152 0.958667 59 59 57
0.835792 0.199182 0.255504 0.958876 0.238414 0.153998 59 59 57
0.912068 -0.030590 0.136292 0.958876 0.238414 0.153998 59 59 57
0.873012 0.134901 0.123270 0.958876 0.238414 0.153998 59 59 57
0.419741 -0.030590 0.393131 -0.888168 -0.309613 0.339555 60 60 58
0.344616 0.057121 0.276602 -0.888168 -0.309613 0.339555 59 59 57
0.343272 -0.030590 0.193112 -0.888168 -0.309613 0.339555 59 59 57
0.733679 -0.030590 -0.097511 -0.161623 0.263092 -0.951137 59 59 57
0.574731 0.181157 -0.011931 -0.161623 0.263092 -0.951137 59 59 57
0.732865 0.164331 -0.043456 -0.161623 0.263092 -0.951137 59 59 57
0.835792 0.199182 0.255504 0.515283 0.419869 0.747123 59 59 57
0.675526 0.188180 0.372221 0.515283 0.419869 0.747123 59 59 57
0.888370 -0.030590 0.348369 0.515283 0.419869 0.747123 59 59 57
0.732865 0.164331 -0.043456 0.783571 0.169066 -0.597858 59 59 57
0.912068 -0.030590 0.136292 0.783571 0.169066 -0.597858 59 59 57
0.733679 -0.030590 -0.097511 0.783571 0.169066 -0.597858 59 59 57
0.470714 0.223920 0.209291 -0.402619 0.587611 0.701862 59 59 57
0.344616 0.057121 0.276602 -0.402619 0.587611 0.701862 59 59 57
0.419741 -0.030590 0.393131 -0.402619 0.587611 0.701862 59 59 57
0.644551 0.238421 0.091723 -0.284885 0.907279 -0.309331 59 59 57
0.574731 0.181157 -0.011931 -0.284885 0.907279 -0.309331 59 59 57
0.470714 0.223920 0.209291 -0.284885 0.907279 -0.309331 59 59 57
0.343272 -0.030590 0.193112 -0.789886 0.423705 -0.443344 61 61 59
0.470714 0.223920 0.209291 -0.789886 0.423705 -0.443344 59 59 57
0.487539 -0.030590 -0.063922 -0.789886 0.423705 -0.443344 61 61 59
0.487539 -0.030590 -0.063922 -0.000000 -1.000000 0.000000 61 61 59
0.733679 -0.030590 -0.097511 -0.000000 -1.000000 0.000000 59 59 57
0.912068 -0.030590 0.136292 -0.000000 -1.000000 0.000000 59 59 57
0.835792 0.199182 0.255504 0.958902 0.262728 0.107151 59 59 57
0.888370 -0.030590 0.348369 0.958902 0.262728 0.107151 59 59 57
0.912068 -0.030590 0.136292 0.958902 0.262728 0.107151 59 59 57
0.675526 0.188180 0.372221 0.056267 0.983836 0.170004 59 59 57
0.835792 0.199182 0.255504 0.056267 0.983836 0.170004 59 59 57
0.644551 0.238421 0.091723 0.056267 0.983836 0.170004 59 59 57
0.644551 0.238421 0.091723 0.034552 0.984403 0.172504 59 59 57
0.470714 0.223920 0.209291 0.034552 0.984403 0.172504 59 59 57
0.675526 0.188180 0.372221 0.034552 0.984403 0.172504 59 59 57
0.733679 -0.030590 -0.097511 -0.129545 0.286430 -0.949303 59 59 57
0.487539 -0.030590 -0.063922 -0.129545 0.286430 -0.949303 61 61 59
0.574731 0.181157 -0.011931 -0.129545 0.286430 -0.949303 59 59 57
0.755259 -0.030590 0.440583 0.516481 0.421207 0.745542 59 59 57
0.888370 -0.030590 0.348369 0.516481 0.421207 0.745542 59 59 57
0.675526 0.188180 0.372221 0.516481 0.421207 0.745542 59 59 57
0.732865 0.164331 -0.043456 0.770132 0.132660 -0.623938 59 59 57
0.873012 0.134901 0.123270 0.770132 0.132660 -0.623938 59 59 57
0.912068 -0.030590 0.136292 0.770132 0.132660 -0.623938 59 59 57
0.419741 -0.030590 0.393131 -0.441755 0.581773 0.682929 59 59 57
0.675526 0.188180 0.372221 -0.441755 0.581773 0.682929 59 59 57
0.470714 0.223920 0.209291 -0.441755 0.581773 0.682929 59 59 57
0.732865 0.164331 -0.043456 0.427269 0.880888 -0.203662 59 59 57
0.644551 0.238421 0.091723 0.427269 0.880888 -0.203662 59 59 57
0.873012 0.134901 0.123270 0.427269 0.880888 -0.203662 59 59 57
0.873012 0.134901 0.123270 0.427858 0.854382 -0.294904 59 59 57
0.644551 0.238421 0.091723 0.427858 0.854382 -0.294904 59 59 57
0.835792 0.199182 0.255504 0.427858 0.854382 -0.294904 59 59 57
0.644551 0.238421 0.091723 -0.002880 0.876125 -0.482075 59 59 57
0.732865 0.164331 -0.043456 -0.002880 0.876125 -0.482075 59 59 57
0.574731 0.181157 -0.011931 -0.002880 0.876125 -0.482075 59 59 57
0.343272 -0.030590 0.193112 -0.794218 0.425280 -0.433998 59 59 57
0.344616 0.057121 0.276602 -0.794218 0.425280 -0.433998 59 59 57
0.470714 0.223920 0.209291 -0.794218 0.425280 -0.433998 59 59 57
0.470714 0.223920 0.209291 -0.780988 0.432272 -0.450776 59 59 57
0.574731 0.181157 -0.011931 -0.780988 0.432272 -0.450776 59 59 57
0.487539 -0.030590 -0.063922 -0.780988 0.432272 -0.450776 61 61 59
0.888370 -0.030590 0.348369 0.000000 -1.000000 0.000000 59 59 57
0.888370 -0.030590 0.348369 0.000000 -1.000000 0.000000 61 61 59
0.755259 -0.030590 0.440583 0.000000 -1.000000 0.000000 59 59 57
0.419741 -0.030590 0.393131 0.000000 -1.000000 0.000000 60 60 58
0.343272 -0.030590 0.193112 0.000000 -1.000000 0.000000 59 59 57
3 0 1 2
3 3 4 5
3 6 7 8
3 9 10 11
3 12 13 14
3 15 16 17
3 18 19 20
3 21 22 23
3 24 25 26
3 27 28 29
3 30 31 32
3 33 34 35
3 36 37 38
3 39 40 41
3 42 43 44
3 45 46 47
3 48 49 50
3 51 52 53
3 54 55 56
3 57 58 59
3 60 61 62
3 63 64 65
3 66 67 68
3 69 70 71
3 72 73 74
3 75 76 77
3 78 79 80
3 81 82 83
3 84 85 86
3 87 88 89
3 90 91 92
3 93 94 95
3 96 97 98
3 99 100 101
3 102 103 104
3 105 106 107
3 108 109 110
3 111 112 113
3 114 115 116
3 117 118 119
3 120 121 122
3 123 124 125
3 126 127 128
3 129 130 131
3 132 133 134
3 135 136 137
3 138 139 140
3 141 142 143
3 144 145 146
3 147 148 149
3 150 151 152
3 153 154 155
3 156 157 158
3 159 160 161
3 162 163 164
3 165 166 167
3 168 169 170
3 171 172 173
3 174 175 176
3 177 178 179
3 180 181 182
3 183 184 185
3 186 187 188
3 189 190 191
3 192 193 194
3 195 196 197
3 198 199 200
3 201 202 203
3 204 205 206
3 207 208 209
3 210 211 212
3 213 214 215
3 216 217 218
3 219 220 221
3 222 223 224
3 225 226 227
3 228 229 230
3 231 232 233
3 234 235 236
3 237 238 239
3 240 241 242
3 30 243 31
3 244 245 246
3 247 248 249
3 250 251 252
3 253 254 255
3 256 257 258
3 259 260 261
3 262 263 264
3 265 266 267
3 268 269 270
3 271 272 273
3 274 275 276
3 277 278 279
3 280 281 282
3 283 284 285
3 286 287 288
3 289 290 291
3 292 293 294
3 295 296 297
3 298 299 300
3 301 302 303
3 304 305 306
3 307 308 309
3 310 311 312
3 313 314 315
3 316 317 318
3 319 320 321
3 322 323 324
3 325 326 327
3 328 329 330
3 331 332 333
3 334 335 336
3 337 338 339
3 96 340 97
3 341 342 343
3 344 345 346
3 347 348 349
3 350 351 352
3 353 354 355
3 119 356 117
3 356 357 117
3 358 359 360
3 361 362 363
3 364 365 366
3 367 368 369
3 370 371 372
3 373 374 375
3 138 376 139
3 144 377 145
3 378 379 380
3 381 382 383
3 384 385 386
3 387 388 389
3 390 391 392
3 393 394 395
3 396 397 398
3 399 400 401
3 402 403 404
3 405 406 407
3 408 409 410
3 411 412 413
3 170 414 168
3 415 416 417
3 418 419 420
3 421 422 423
3 424 425 426
3 427 428 429
3 177 430 178
3 180 431 181
3 432 433 434
3 435 436 437
3 438 439 440
3 441 442 443
3 193 444 194
3 194 445 192
3 446 447 448
3 449 450 451
3 452 453 454
3 455 456 457
3 458 459 460
3 461 462 463
3 464 465 466
3 467 468 469
3 470 471 472
3 473 474 475
3 476 477 478
3 479 480 481
3 482 483 484
3 485 486 487
3 488 489 490
3 491 492 493
3 494 495 496
3 497 498 499
3 500 501 502
3 503 504 505
3 506 507 508
3 509 510 511
3 512 513 514
3 515 516 517
3 518 519 520
3 521 522 523
3 524 525 526
3 527 528 529
3 530 531 532
3 533 534 535
3 499 536 497
3 537 538 497
3 538 539 540
3 540 497 538
