# Blender v2.79 (sub 0) OBJ File: ''
# www.blender.org
mtllib 0001.mtl
o 0000_Dirt_Copy_Dirt.000
v 0.000000 0.000000 0.000000
v 0.000000 0.999993 -0.999992
v 0.000000 0.000001 -0.999993
v 0.999993 0.999993 0.000000
v 0.999993 0.999993 -0.999992
v 0.000000 0.999993 0.000000
v 0.999993 0.000001 -0.999993
v 0.999993 0.000000 0.000000
vt 0.342342 0.324324
vt 0.657658 0.009009
vt 0.657658 0.324324
vt 0.342342 0.342342
vt 0.657658 0.342342
vt 0.657658 0.657658
vt 0.342342 0.657658
vt 0.009009 0.657658
vt 0.324324 0.342342
vt 0.324324 0.657658
vt 0.009009 0.990991
vt 0.324324 0.675676
vt 0.324324 0.990991
vt 0.009009 0.009009
vt 0.324324 0.324324
vt 0.009009 0.324324
vt 0.990991 0.324324
vt 0.675676 0.324324
vt 0.675676 0.009009
vt 0.324324 0.009009
vt 0.009009 0.675676
vt 0.009009 0.342342
vt 0.342342 0.009009
vt 0.990991 0.009009
vn -1.0000 0.0000 0.0000
vn 0.0000 1.0000 0.0000
vn 0.0000 0.0000 -1.0000
vn 1.0000 0.0000 0.0000
vn 0.0000 -0.0000 1.0000
vn 0.0000 -1.0000 -0.0000
usemtl palette.000
s 1
f 1/1/1 2/2/1 3/3/1
f 4/4/2 5/5/2 2/6/2
f 4/4/2 2/6/2 6/7/2
f 2/8/3 7/9/3 3/10/3
f 4/11/4 7/12/4 5/13/4
f 8/14/5 6/15/5 1/16/5
f 3/17/6 7/18/6 8/19/6
f 4/20/5 6/15/5 8/14/5
f 4/11/4 8/21/4 7/12/4
f 2/8/3 5/22/3 7/9/3
f 1/1/1 6/23/1 2/2/1
f 8/19/6 1/24/6 3/17/6
